<svg width="171" height="22" viewBox="0 0 171 22" fill="none" xmlns="http://www.w3.org/2000/svg">
<path d="M10.976 21.42C16.268 21.42 20.412 17.92 21.112 12.712H16.604C16.1 15.596 13.888 17.612 11.032 17.612C7.588 17.612 5.264 14.868 5.264 10.92C5.264 7 7.588 4.284 11.032 4.284C13.888 4.284 16.128 6.272 16.604 9.156H21.112C20.412 4.004 16.268 0.475999 10.976 0.475999C5.32 0.475999 0.896 5.04 0.896 10.92C0.896 16.828 5.32 21.42 10.976 21.42ZM30.3557 21.28C34.6957 21.28 37.9437 17.864 37.9437 13.524C37.9437 9.156 34.6957 5.768 30.3557 5.768C26.0157 5.768 22.7677 9.156 22.7677 13.524C22.7677 17.864 26.0157 21.28 30.3557 21.28ZM30.3557 17.836C28.4237 17.836 26.7717 16.296 26.7717 13.524C26.7717 10.752 28.4237 9.24 30.3557 9.24C32.2877 9.24 33.9397 10.752 33.9397 13.524C33.9397 16.296 32.2877 17.836 30.3557 17.836ZM44.3194 12.852C44.3194 10.444 45.6354 9.212 47.1754 9.212C48.9394 9.212 49.8074 10.444 49.8074 12.656V21H53.6714V11.34C53.6714 7.728 51.5994 5.768 48.6034 5.768C46.6434 5.768 45.1034 6.692 44.0114 8.176V6.048H40.4274V21H44.3194V12.852ZM60.9171 12.852C60.9171 10.444 62.2331 9.212 63.7731 9.212C65.5371 9.212 66.4051 10.444 66.4051 12.656V21H70.2691V11.34C70.2691 7.728 68.1971 5.768 65.2011 5.768C63.2411 5.768 61.7011 6.692 60.6091 8.176V6.048H57.0251V21H60.9171V12.852ZM80.1187 21.252C83.7587 21.252 86.3627 19.32 87.2027 15.932H83.3387C82.8907 17.416 81.7427 18.256 80.0347 18.256C78.0467 18.256 76.8707 16.912 76.6187 14.476H87.2307C87.9307 9.604 84.7947 5.768 80.0627 5.768C75.7507 5.768 72.6427 9.016 72.6427 13.468C72.6427 18.144 75.6387 21.252 80.1187 21.252ZM79.9787 8.624C81.8267 8.624 83.0027 9.94 83.1147 12.012H76.6747C77.0107 9.8 78.1587 8.624 79.9787 8.624ZM95.8641 21.28C99.8681 21.28 102.668 18.732 103.116 14.616H99.0281C98.8041 16.66 97.6561 17.836 95.8641 17.836C93.8201 17.836 92.5601 16.212 92.5601 13.524C92.5601 10.864 93.8481 9.212 95.8641 9.212C97.6281 9.212 98.8321 10.444 99.0281 12.432H103.116C102.64 8.4 99.7561 5.768 95.8641 5.768C91.6641 5.768 88.5841 9.044 88.5841 13.524C88.5841 18.088 91.5521 21.28 95.8641 21.28ZM114.911 17.22C114.351 17.528 113.679 17.696 112.951 17.696C111.551 17.696 110.767 16.996 110.767 15.26V9.38H115.051V6.048H110.767V1.624H106.903V6.048H103.879V9.38H106.903V16.156C106.903 19.516 108.835 21.28 111.915 21.28C113.063 21.28 113.959 21.084 114.911 20.608V17.22Z" fill="#EC2024"/>
<path d="M126.863 21.42C132.687 21.42 137.195 16.94 137.195 10.92C137.195 4.9 132.687 0.475999 126.863 0.475999C121.067 0.475999 116.587 4.9 116.587 10.92C116.587 16.94 121.067 21.42 126.863 21.42ZM126.863 17.612C123.195 17.612 120.955 14.616 120.955 10.92C120.955 7.224 123.195 4.284 126.863 4.284C130.559 4.284 132.799 7.224 132.799 10.92C132.799 14.616 130.559 17.612 126.863 17.612ZM143.687 12.852C143.687 10.444 145.003 9.212 146.543 9.212C148.307 9.212 149.175 10.444 149.175 12.656V21H153.039V11.34C153.039 7.728 150.967 5.768 147.971 5.768C146.011 5.768 144.471 6.692 143.379 8.176V6.048H139.795V21H143.687V12.852ZM162.888 21.252C166.528 21.252 169.132 19.32 169.972 15.932H166.108C165.66 17.416 164.512 18.256 162.804 18.256C160.816 18.256 159.64 16.912 159.388 14.476H170C170.7 9.604 167.564 5.768 162.832 5.768C158.52 5.768 155.412 9.016 155.412 13.468C155.412 18.144 158.408 21.252 162.888 21.252ZM162.748 8.624C164.596 8.624 165.772 9.94 165.884 12.012H159.444C159.78 9.8 160.928 8.624 162.748 8.624Z" fill="#F8A86F"/>
</svg>
