<svg width="24" height="24" viewBox="0 0 24 24" fill="none" xmlns="http://www.w3.org/2000/svg">
<g clip-path="url(#clip0_784_2)">
<path d="M23.9999 16.5472C23.8734 16.6681 23.7655 16.8233 23.617 16.9053C21.0154 18.3428 18.4113 19.7758 15.8048 21.2042C15.5657 21.3359 15.3637 21.3303 15.126 21.1991C12.5163 19.7591 9.90398 18.3244 7.28898 16.895C7.03914 16.7586 6.92055 16.5819 6.93461 16.2973C6.94773 16.033 6.93742 15.7672 6.93742 15.4653H6.68195C5.50226 15.4653 4.32273 15.4653 3.14336 15.4653C3.04244 15.4687 2.9416 15.4566 2.8443 15.4297C2.74714 15.3982 2.66353 15.3347 2.60716 15.2496C2.55079 15.1644 2.52499 15.0627 2.53398 14.9609C2.54312 14.8552 2.58812 14.7557 2.66151 14.679C2.73491 14.6022 2.8323 14.5529 2.93758 14.5391C3.02329 14.5315 3.1094 14.5293 3.19539 14.5325H6.91727V12.095H6.67586C5.87898 12.095 5.08211 12.095 4.28523 12.095C4.05976 12.095 3.88773 11.9966 3.8132 11.7805C3.74992 11.5986 3.77242 11.4055 3.93601 11.2925C4.05718 11.2122 4.19852 11.1677 4.34383 11.1641C5.19461 11.1523 6.04586 11.158 6.91727 11.158V9.47047H1.70711C1.62893 9.47394 1.5506 9.47175 1.47273 9.46391C1.35488 9.45032 1.24687 9.39161 1.17136 9.30011C1.09585 9.20861 1.05871 9.09142 1.06774 8.97313C1.07082 8.85853 1.11775 8.74948 1.19886 8.66846C1.27997 8.58743 1.38907 8.54062 1.50367 8.53766C1.68274 8.52688 1.86273 8.53344 2.04227 8.53344H6.93742C6.93742 8.22547 6.94352 7.9386 6.93742 7.65219C6.93086 7.4061 7.03492 7.24297 7.25055 7.12485C9.88461 5.68141 12.5168 4.23516 15.1471 2.7861C15.3684 2.66422 15.5629 2.65766 15.7851 2.78C18.4157 4.22938 21.0471 5.6775 23.6793 7.12438C23.8021 7.19235 23.8949 7.31516 24.0018 7.41219V10.7403C23.7801 11.015 23.6001 11.0947 23.3765 11.0183C23.1529 10.9419 23.0643 10.7647 23.0643 10.4023V8.36141C22.3377 8.76032 21.6529 9.1311 20.977 9.51641C20.9137 9.5525 20.8724 9.67953 20.8715 9.76485C20.8635 10.5064 20.8645 11.2484 20.8682 11.99C20.8682 12.1948 20.8073 12.3608 20.6249 12.462C20.0526 12.7803 19.4812 13.1019 18.9018 13.407C18.5737 13.5791 18.2376 13.3831 18.2062 13.0142C18.1912 12.8356 18.2015 12.6552 18.2015 12.4756C18.2015 12.0097 18.2015 11.5442 18.2015 11.0445C18.0927 11.098 18.014 11.1317 17.9432 11.172C17.3413 11.5002 16.7432 11.8386 16.1366 12.1592C15.9834 12.2403 15.9351 12.3327 15.9351 12.5033C15.941 14.9317 15.9424 17.3603 15.9393 19.7891V20.0413C16.0087 20.0108 16.0509 19.9944 16.0902 19.9747C18.3668 18.7247 20.6424 17.473 22.9171 16.2195C22.9572 16.1908 22.9906 16.1536 23.0149 16.1106C23.0392 16.0676 23.0538 16.0198 23.0577 15.9706C23.0709 15.432 23.0615 14.8925 23.0657 14.3544C23.0657 14.1088 23.2007 13.9297 23.4032 13.8763C23.6301 13.8163 23.8171 13.9002 23.9545 14.1233C23.9709 14.1495 23.9859 14.1767 24.0013 14.2034L23.9999 16.5472ZM14.9999 20.0563V19.7778C14.9999 17.3656 15.0015 14.9533 15.0046 12.5408C15.0046 12.3444 14.9516 12.2389 14.7749 12.1423C12.5427 10.9264 10.3135 9.70516 8.08727 8.4786C8.0282 8.44625 7.9668 8.4186 7.88477 8.37875C7.88055 8.45563 7.87539 8.50719 7.87539 8.55922C7.87539 11.0264 7.87398 13.4933 7.87117 15.9598C7.87117 16.1089 7.92742 16.1773 8.04976 16.2439C9.6657 17.1258 11.2795 18.0102 12.891 18.897C13.5801 19.2753 14.2687 19.6541 14.9999 20.0563ZM8.38305 7.56735L9.4982 8.18094C11.4254 9.23906 13.353 10.2961 15.2812 11.352C15.3609 11.3956 15.4893 11.4406 15.5535 11.4064C16.2627 11.0314 16.9635 10.6405 17.6952 10.2378C17.474 10.115 17.278 10.0034 17.0812 9.89656C14.9899 8.74907 12.8984 7.60266 10.8065 6.45735C10.7221 6.41047 10.5843 6.37063 10.514 6.40766C9.80992 6.77797 9.1157 7.16516 8.38305 7.56735ZM22.5524 7.57157C22.4291 7.50172 22.3293 7.44313 22.2276 7.38735C20.0401 6.1861 17.8516 4.98547 15.6623 3.78547C15.5821 3.74188 15.4532 3.695 15.389 3.72875C14.707 4.08922 14.0334 4.46563 13.3298 4.85375C13.7516 5.08813 14.1459 5.30422 14.541 5.52125C16.4348 6.56125 18.3293 7.60016 20.2246 8.63797C20.3038 8.6811 20.4323 8.72516 20.4965 8.69141C21.179 8.33047 21.8535 7.955 22.5524 7.57157ZM19.4118 9.26469L18.0271 8.50344C16.1952 7.49719 14.3627 6.49188 12.5296 5.4875C12.457 5.44813 12.3421 5.40969 12.2812 5.43828C12.0571 5.53907 11.8462 5.66938 11.6001 5.80532C11.6999 5.86532 11.7693 5.91032 11.842 5.95016C13.9063 7.08453 15.9707 8.21828 18.0351 9.35141C18.7063 9.72031 18.7059 9.72078 19.3541 9.32563C19.3741 9.30678 19.3926 9.28641 19.4095 9.26469H19.4118ZM19.9274 10.0845C19.6823 10.2191 19.4727 10.3189 19.2801 10.4473C19.2428 10.474 19.2113 10.5081 19.1878 10.5474C19.1642 10.5868 19.149 10.6306 19.1432 10.6761C19.1301 11.1041 19.1371 11.533 19.1371 11.9614V12.2094C19.3982 12.0688 19.6134 11.9591 19.8182 11.8344C19.8474 11.8133 19.8719 11.7863 19.8899 11.7551C19.9079 11.7239 19.9191 11.6893 19.9227 11.6534C19.9312 11.1472 19.9274 10.6409 19.9274 10.0845Z" fill="#0B1224"/>
<path d="M0 14.8594C0.132188 14.5997 0.343592 14.4998 0.631405 14.5252C0.809061 14.5406 0.98953 14.5214 1.16812 14.5322C1.28227 14.5357 1.39074 14.5828 1.47127 14.6638C1.55181 14.7448 1.59831 14.8535 1.60125 14.9677C1.61344 15.2194 1.45219 15.4364 1.19859 15.4547C0.935625 15.4758 0.662345 15.4959 0.408282 15.4448C0.257814 15.4148 0.135 15.2466 0 15.1406V14.8594Z" fill="#0B1224"/>
<path d="M24.0003 12.6097L23.9023 12.7311C23.8618 12.7831 23.8107 12.826 23.7524 12.857C23.6941 12.8879 23.6299 12.9062 23.5641 12.9106C23.4982 12.915 23.4322 12.9055 23.3703 12.8826C23.3084 12.8598 23.252 12.8241 23.2048 12.778C23.1587 12.7334 23.1225 12.6796 23.0983 12.6202C23.0742 12.5608 23.0627 12.497 23.0647 12.4329C23.0666 12.3688 23.0819 12.3057 23.1096 12.2479C23.1373 12.19 23.1767 12.1386 23.2255 12.0969C23.2755 12.0541 23.3339 12.0224 23.397 12.0037C23.46 11.985 23.5263 11.9798 23.5915 11.9884C23.6568 11.997 23.7194 12.0193 23.7755 12.0537C23.8315 12.0882 23.8797 12.134 23.9169 12.1883C23.9483 12.2319 23.9726 12.282 24.0003 12.3289V12.6097Z" fill="#0B1224"/>
<path d="M1.91316 11.616C1.9126 11.5554 1.92408 11.4953 1.94694 11.4392C1.9698 11.3831 2.00358 11.3321 2.04632 11.2891C2.08905 11.2462 2.1399 11.2121 2.1959 11.189C2.2519 11.1658 2.31194 11.154 2.37253 11.1543C2.49456 11.1552 2.61151 11.2033 2.69889 11.2885C2.78626 11.3737 2.83729 11.4894 2.84128 11.6113C2.84054 11.7377 2.78995 11.8587 2.70051 11.9479C2.61106 12.0372 2.48999 12.0876 2.36363 12.0881C2.24153 12.0845 2.12576 12.0329 2.04143 11.9446C1.9571 11.8562 1.91101 11.7382 1.91316 11.616Z" fill="#0B1224"/>
</g>
<defs>
<clipPath id="clip0_784_2">
<rect width="24" height="24" fill="white"/>
</clipPath>
</defs>
</svg>
