<svg width="26" height="26" viewBox="0 0 26 26" fill="none" xmlns="http://www.w3.org/2000/svg">
<path d="M23.0002 8.41894C22.9517 8.65916 22.9146 8.90211 22.8525 9.13882C22.4967 10.4985 21.676 11.4738 20.4023 12.0633C20.2671 12.1258 20.23 12.1968 20.2304 12.339C20.2348 15.3076 20.2359 18.277 20.2335 21.2471C20.2335 21.7502 20.041 21.9443 19.5422 21.9447L8.47055 21.9474H7.16047C7.00696 22.3291 6.67066 22.4603 6.23904 22.4373C6.00468 22.4244 5.77032 22.4349 5.53596 22.4349C4.8981 22.4349 4.70241 22.2841 4.54344 21.6486C4.34618 21.6486 4.14112 21.6486 3.93605 21.6486C3.35015 21.6439 3.03767 21.3299 3.03767 20.742C3.03767 20.1171 3.03767 19.4933 3.03767 18.8707C3.03767 18.8316 3.03767 18.7925 3.03767 18.7535C3.0529 18.5711 3.17242 18.4496 3.33257 18.4516C3.49272 18.4535 3.61576 18.5762 3.61966 18.7601C3.6263 19.0781 3.62201 19.3968 3.62201 19.7151C3.62201 20.0725 3.61966 20.43 3.62201 20.7874C3.62396 20.9858 3.69466 21.0553 3.89543 21.0608C4.1087 21.0647 4.32197 21.0608 4.54851 21.0608V17.0009C4.30829 17.0009 4.06964 16.9934 3.83176 17.004C3.69505 17.0098 3.62747 17.1048 3.62396 17.2407C3.62083 17.3579 3.6306 17.475 3.61693 17.5922C3.59779 17.7547 3.49975 17.8531 3.33179 17.8559C3.17281 17.8582 3.06188 17.766 3.04938 17.6149C3.02842 17.4214 3.03433 17.2259 3.06696 17.0341C3.14118 16.663 3.45092 16.4259 3.8384 16.415C4.07276 16.4083 4.30712 16.415 4.54734 16.415C4.56179 16.3509 4.57508 16.2978 4.5864 16.2404C4.66687 15.874 4.94107 15.6416 5.31878 15.6353C5.68907 15.6291 6.06093 15.6298 6.42965 15.6353C6.82026 15.6408 7.09172 15.8623 7.18234 16.2415C7.1925 16.2853 7.20344 16.3286 7.21594 16.3814C7.31562 16.3479 7.40764 16.2949 7.48663 16.2255C7.56563 16.1561 7.63003 16.0716 7.67607 15.9771C7.85535 15.6388 8.03073 15.2986 8.19713 14.9537C8.23619 14.8756 8.23619 14.7779 8.23619 14.6889C8.23853 13.5389 8.23853 12.3889 8.23619 11.2387C8.23619 10.7586 8.41313 10.5817 8.89279 10.5817H14.8807C14.8272 10.4926 14.7928 10.4348 14.7581 10.3766C13.8245 8.81345 13.8136 7.22682 14.7542 5.69136C15.7092 4.13091 17.1505 3.42822 18.9871 3.57586C19.2176 3.59422 19.343 3.71687 19.3289 3.89147C19.3141 4.07271 19.1629 4.18247 18.9262 4.15864C18.2793 4.0938 17.652 4.17466 17.0599 4.4387C15.6565 5.06367 14.8335 6.14173 14.6948 7.67797C14.6054 8.60273 14.8539 9.52858 15.3943 10.2843C15.9347 11.0401 16.7305 11.5746 17.6345 11.7891C19.7754 12.305 22.1131 10.8516 22.3842 8.51346C22.5842 6.78974 21.7249 5.2285 20.1578 4.48753C20.1285 4.47386 20.098 4.46175 20.0699 4.44612C19.9019 4.35277 19.8394 4.20708 19.9027 4.05943C19.9177 4.0211 19.9408 3.98649 19.9705 3.95801C20.0002 3.92952 20.0357 3.90783 20.0746 3.89445C20.1135 3.88107 20.1549 3.87632 20.1958 3.88053C20.2368 3.88473 20.2763 3.8978 20.3117 3.91881C20.6378 4.09029 20.9757 4.2559 21.2671 4.4762C22.2682 5.23006 22.8189 6.25032 22.9681 7.49126C22.976 7.52841 22.9868 7.56486 23.0006 7.60024L23.0002 8.41894ZM19.6367 21.3526V12.389L17.9653 12.4894C17.9653 12.8081 17.9653 13.1636 17.9653 13.519C17.9653 13.844 17.9719 14.169 17.963 14.4936C17.9559 14.7596 17.7345 14.9018 17.5278 14.7861C17.395 14.7115 17.3774 14.5873 17.3778 14.4514C17.3778 13.8018 17.3739 13.1519 17.3821 12.5023C17.3841 12.3593 17.3372 12.2992 17.2036 12.2593C16.6115 12.0808 16.0678 11.7996 15.6264 11.3668C15.376 11.1215 15.11 11.1657 14.81 11.1828V11.409C14.81 12.1886 14.81 12.9683 14.81 13.7479C14.81 13.9432 14.7647 14.1116 14.5757 14.2041C14.3948 14.2928 14.237 14.2295 14.0901 14.1143C13.8093 13.8936 13.5218 13.6811 13.248 13.4503C13.1351 13.3558 13.0625 13.3608 12.9515 13.4503C12.6441 13.6995 12.3336 13.9467 12.009 14.1729C11.7676 14.3412 11.4727 14.2053 11.4122 13.9171C11.3965 13.8343 11.3895 13.7501 11.3911 13.6659C11.3895 12.9058 11.3895 12.1457 11.3911 11.3856V11.1778H8.84436V14.1795C9.04239 14.2459 9.23496 14.2729 9.38729 14.3682C9.91422 14.7014 10.088 15.3353 9.83024 15.9056C9.75212 16.081 9.66032 16.2517 9.56072 16.4525H9.79508C10.8993 16.4525 12.0039 16.4497 13.1082 16.4525C13.6285 16.4525 14.0011 16.7286 14.0917 17.1915C14.1214 17.3438 14.0964 17.5067 14.0964 17.6813C14.6374 17.6399 15.076 17.8184 15.226 18.3769C15.36 18.8773 15.135 19.2449 14.7264 19.4257C14.7007 19.6964 14.7229 19.9378 14.6483 20.1448C14.5057 20.5421 14.1772 20.7108 13.7605 20.7108H12.8035V21.344H17.3798V15.9009C17.3777 15.8295 17.3795 15.7581 17.3853 15.6869C17.4024 15.5306 17.4931 15.4384 17.6509 15.4279C17.8087 15.4174 17.9126 15.4966 17.9485 15.6498C17.9632 15.726 17.9691 15.8038 17.9661 15.8814C17.9661 17.6289 17.9661 19.3765 17.9661 21.1241V21.3526H19.6367ZM9.65915 21.335V21.3572C10.3672 21.3572 11.0753 21.3572 11.7836 21.3572C11.8612 21.3593 11.9386 21.3503 12.0137 21.3307C12.0812 21.314 12.1402 21.2732 12.1797 21.216C12.2193 21.1588 12.2365 21.0892 12.2281 21.0202C12.2172 20.8639 12.1344 20.751 11.9621 20.7358C11.859 20.7268 11.7555 20.7182 11.6497 20.717C11.2981 20.7131 10.9466 20.717 10.5978 20.7088C10.4337 20.7045 10.3314 20.6073 10.3243 20.4385C10.3173 20.2698 10.4075 20.1706 10.5708 20.1417C10.6412 20.131 10.7125 20.1266 10.7837 20.1284C11.7386 20.1268 12.6936 20.1261 13.6488 20.1261C13.7201 20.1282 13.7915 20.1255 13.8624 20.1179C14.0355 20.0936 14.1315 19.9835 14.1358 19.8155C14.1397 19.6569 14.0507 19.5445 13.8929 19.5031C13.8285 19.4913 13.7629 19.4875 13.6976 19.4917C12.8143 19.4917 11.9309 19.4917 11.0474 19.4917C10.9822 19.4953 10.9168 19.493 10.8521 19.4847C10.6911 19.4542 10.5954 19.3546 10.6009 19.1878C10.606 19.0316 10.7013 18.9382 10.854 18.9125C10.9188 18.9049 10.9841 18.9028 11.0493 18.9062C12.1016 18.9062 13.154 18.9062 14.2065 18.9062C14.2776 18.9062 14.3608 18.9222 14.4171 18.8914C14.5065 18.8429 14.6245 18.7742 14.644 18.691C14.6663 18.5965 14.626 18.4461 14.5561 18.3816C14.478 18.3094 14.3354 18.2777 14.2206 18.277C13.1746 18.2695 12.1285 18.273 11.0829 18.2715C10.9988 18.274 10.9147 18.266 10.8325 18.2477C10.6872 18.2086 10.6204 18.1031 10.6294 17.9559C10.6287 17.8932 10.6509 17.8324 10.6919 17.785C10.7329 17.7375 10.7899 17.7068 10.8521 17.6985C10.9296 17.6868 11.008 17.6822 11.0864 17.6848C11.736 17.6848 12.3856 17.6848 13.0351 17.6848C13.1128 17.6855 13.1904 17.6798 13.2671 17.6676C13.3361 17.6595 13.3997 17.6266 13.4461 17.575C13.4925 17.5233 13.5184 17.4566 13.5191 17.3872C13.5304 17.2333 13.448 17.1231 13.3035 17.077C13.2162 17.0528 13.1257 17.042 13.0351 17.045C11.8918 17.045 10.7485 17.045 9.60525 17.045C9.05606 17.045 8.80803 16.6407 9.04903 16.1501C9.14317 15.9583 9.24746 15.7701 9.32245 15.5705C9.41581 15.3197 9.333 15.0967 9.14824 14.9147C9.01466 14.783 8.94123 14.7975 8.85412 14.9689C8.65882 15.3498 8.46586 15.7322 8.27134 16.1134C8.07331 16.5013 7.80653 16.8216 7.37296 16.9536C7.23468 16.9958 7.20187 17.0637 7.20227 17.1997C7.20734 18.4859 7.20539 19.7722 7.20539 21.0584C7.20539 21.3178 7.20539 21.3319 7.47569 21.3365C8.20572 21.3401 8.93419 21.335 9.66032 21.335H9.65915ZM5.15121 19.0433C5.15121 19.8875 5.15121 20.7316 5.15121 21.5756C5.15121 21.7967 5.19613 21.8428 5.41057 21.8447C5.72891 21.8474 6.04686 21.8412 6.3652 21.8467C6.54644 21.8502 6.62652 21.7744 6.62261 21.5916C6.61675 21.3127 6.62261 21.0334 6.62261 20.7542V16.5462C6.62261 16.2443 6.59449 16.2169 6.28513 16.2169C6.00624 16.2169 5.72696 16.2169 5.44768 16.2169C5.19652 16.2169 5.15278 16.2603 5.15239 16.5106C5.15082 17.3549 5.15043 18.1991 5.15121 19.0433ZM14.2132 11.1879C14.1858 11.1798 14.1577 11.1745 14.1292 11.1719C13.4613 11.1719 12.7933 11.1719 12.1254 11.1672C11.9754 11.1672 11.9793 11.2504 11.9797 11.3547C11.9797 11.9578 11.9797 12.5609 11.9797 13.164V13.4737C12.2817 13.2394 12.5434 13.0296 12.8097 12.8273C13.023 12.6648 13.1773 12.666 13.3929 12.8273C13.5281 12.928 13.6585 13.0351 13.7917 13.1398C13.9249 13.2444 14.0616 13.346 14.2124 13.4612L14.2132 11.1879Z" fill="#029046"/>
<path d="M17.7827 9.27394L20.3669 6.37528C20.4124 6.32028 20.4623 6.26907 20.5161 6.22216C20.6384 6.12451 20.772 6.12256 20.8892 6.22412C21.0063 6.32567 21.0212 6.45848 20.9423 6.59324C20.9073 6.64791 20.8672 6.69905 20.8224 6.74596C19.9761 7.69747 19.1298 8.64793 18.2834 9.59736C17.9507 9.97077 17.6069 9.97038 17.2761 9.59736C16.9188 9.19373 16.5615 8.79011 16.2043 8.38649C16.1008 8.26931 16.0555 8.14119 16.1472 7.99589C16.223 7.87675 16.3425 7.83379 16.4683 7.87871C16.5506 7.91527 16.6231 7.97066 16.68 8.04042C17.0023 8.39704 17.3194 8.75834 17.6386 9.1177C17.6792 9.16769 17.7233 9.21261 17.7827 9.27394Z" fill="#029046"/>
</svg>
