<svg width="24" height="24" viewBox="0 0 24 24" fill="none" xmlns="http://www.w3.org/2000/svg">
<g clip-path="url(#clip0_519_2)">
<path d="M21.3281 0C21.4338 0.130625 21.565 0.249999 21.6406 0.393749C22.1262 1.34562 22.5994 2.30375 23.0781 3.26C23.085 3.27438 23.0931 3.2875 23.1 3.30125C23.2487 3.60688 23.2069 3.83313 22.9806 3.95C22.7544 4.06688 22.54 3.97 22.3869 3.665C22.0535 3.00333 21.7217 2.34062 21.3913 1.67687C21.3575 1.60937 21.3194 1.54375 21.2663 1.44C21.0913 1.94 20.925 2.3975 20.7663 2.85938C19.7444 5.88937 18.1794 8.6 16.0013 10.9469C12.9875 14.1931 9.33187 16.3567 5.03437 17.4375C3.91974 17.7163 2.78437 17.9044 1.63937 18L1.56875 17.2169C7.16562 16.6362 11.8775 14.31 15.6538 10.1419C17.9813 7.57312 19.485 4.5525 20.4581 1.2225C19.7706 1.56687 19.0963 1.905 18.4219 2.24125C18.3263 2.29299 18.2271 2.33769 18.125 2.375C18.0353 2.40524 17.9376 2.40218 17.85 2.36638C17.7623 2.33058 17.6904 2.26442 17.6475 2.18C17.6075 2.0944 17.5988 1.99748 17.6229 1.90612C17.647 1.81476 17.7024 1.73474 17.7794 1.68C17.8504 1.63256 17.925 1.59076 18.0025 1.555C19.0333 1.03708 20.0642 0.519791 21.095 0.00312424L21.3281 0Z" fill="#029046"/>
<path d="M0 23.2038H24V24H0V23.2038Z" fill="#029046"/>
<path d="M22.7975 15.0256V21.7719C22.7975 22.2988 22.6931 22.4031 22.1725 22.4031C21.3679 22.4031 20.5638 22.4031 19.76 22.4031C19.3419 22.4031 19.2063 22.2731 19.2063 21.8625C19.2063 17.2863 19.2063 12.7102 19.2063 8.13438C19.2063 7.73438 19.3437 7.59813 19.74 7.5975C20.5758 7.5975 21.4112 7.5975 22.2462 7.5975C22.6706 7.5975 22.8 7.72875 22.8 8.16C22.7983 10.4488 22.7975 12.7373 22.7975 15.0256ZM20.0244 8.41063V21.5881H21.98V8.41063H20.0244Z" fill="#029046"/>
<path d="M14.8031 17.7906C14.8031 16.4473 14.8031 15.1044 14.8031 13.7619C14.8031 13.3244 14.9213 13.2044 15.3563 13.2031C16.1917 13.2031 17.0271 13.2031 17.8625 13.2031C18.27 13.2031 18.3994 13.3281 18.4 13.7344C18.4 16.4427 18.4 19.151 18.4 21.8594C18.4 22.2587 18.2587 22.3981 17.8656 22.3994C17.0227 22.3994 16.1796 22.3994 15.3362 22.3994C14.9394 22.3994 14.8037 22.2619 14.8031 21.8625C14.8023 20.5062 14.8023 19.149 14.8031 17.7906ZM15.625 14.015V21.5887H17.5837V14.015H15.625Z" fill="#029046"/>
<path d="M10.4031 19.1944C10.4031 18.3044 10.4031 17.4144 10.4031 16.5244C10.4031 16.1419 10.5419 15.9994 10.9244 15.9981C11.7748 15.9944 12.6256 15.9944 13.4769 15.9981C13.8519 15.9981 14.0019 16.1481 14.0025 16.525C14.005 18.305 14.005 20.085 14.0025 21.865C14.0025 22.2588 13.8562 22.4019 13.465 22.4031C12.6217 22.4031 11.7783 22.4031 10.935 22.4031C10.54 22.4031 10.4037 22.2631 10.4031 21.8644C10.4019 20.9744 10.4019 20.0844 10.4031 19.1944ZM11.2125 21.5863H13.2025V17.4069C13.2025 16.7975 13.2025 16.7975 12.5975 16.7975H11.2125V21.5863Z" fill="#029046"/>
<path d="M6 20.1969C6 19.6344 6 19.0719 6 18.5094C6 18.1444 6.14625 18.0019 6.515 18.0006C7.37458 18.0006 8.23375 18.0006 9.0925 18.0006C9.45437 18.0006 9.60188 18.1494 9.6025 18.5169C9.605 19.6419 9.605 20.7669 9.6025 21.8919C9.6025 22.2531 9.44875 22.4013 9.08437 22.4025C8.22562 22.405 7.36646 22.405 6.50687 22.4025C6.14437 22.4025 6.00125 22.2519 6 21.8838C6 21.3213 6 20.7588 6 20.1969ZM8.78437 21.5931V18.8156H6.8125V21.5931H8.78437Z" fill="#029046"/>
<path d="M3.41188 22.4031C2.97438 22.4031 2.53688 22.4031 2.09938 22.4031C1.75 22.4 1.59938 22.2506 1.59938 21.9031C1.59563 21.1694 1.59563 20.4356 1.59938 19.7019C1.59938 19.3519 1.74688 19.2069 2.09938 19.2056C2.96563 19.2019 3.83187 19.2019 4.69812 19.2056C5.06312 19.2056 5.19812 19.3513 5.19812 19.7244C5.19812 20.4423 5.19812 21.1602 5.19812 21.8781C5.19812 22.2575 5.0525 22.4019 4.67313 22.4038C4.255 22.405 3.83375 22.4031 3.41188 22.4031ZM4.38813 21.5906V20.0175H2.41125V21.5931L4.38813 21.5906Z" fill="#029046"/>
</g>
<defs>
<clipPath id="clip0_519_2">
<rect width="24" height="24" fill="white"/>
</clipPath>
</defs>
</svg>
