<svg width="24" height="24" viewBox="0 0 24 24" fill="none" xmlns="http://www.w3.org/2000/svg">
<g clip-path="url(#clip0_298_442)">
<path d="M21.3277 0C21.4334 0.130625 21.5646 0.249999 21.6402 0.393749C22.1259 1.34562 22.599 2.30375 23.0777 3.26C23.0846 3.27438 23.0927 3.2875 23.0996 3.30125C23.2484 3.60688 23.2065 3.83313 22.9802 3.95C22.754 4.06688 22.5396 3.97 22.3865 3.665C22.0531 3.00333 21.7213 2.34062 21.3909 1.67687C21.3571 1.60937 21.319 1.54375 21.2659 1.44C21.0909 1.94 20.9246 2.3975 20.7659 2.85938C19.744 5.88937 18.179 8.6 16.0009 10.9469C12.9871 14.1931 9.33149 16.3567 5.03399 17.4375C3.91935 17.7163 2.78398 17.9044 1.63898 18L1.56836 17.2169C7.16523 16.6362 11.8771 14.31 15.6534 10.1419C17.9809 7.57312 19.4846 4.5525 20.4577 1.2225C19.7702 1.56687 19.0959 1.905 18.4215 2.24125C18.3259 2.29299 18.2267 2.33769 18.1246 2.375C18.0349 2.40524 17.9372 2.40218 17.8496 2.36638C17.7619 2.33058 17.69 2.26442 17.6471 2.18C17.6071 2.0944 17.5984 1.99748 17.6225 1.90612C17.6466 1.81476 17.702 1.73474 17.779 1.68C17.85 1.63256 17.9246 1.59076 18.0021 1.555C19.0329 1.03708 20.0638 0.519791 21.0946 0.00312424L21.3277 0Z" fill="white"/>
<path d="M0 23.2031H24V23.9994H0V23.2031Z" fill="white"/>
<path d="M22.7983 15.0258V21.772C22.7983 22.2989 22.6939 22.4033 22.1733 22.4033C21.3687 22.4033 20.5645 22.4033 19.7608 22.4033C19.3427 22.4033 19.207 22.2733 19.207 21.8627C19.207 17.2864 19.207 12.7104 19.207 8.13453C19.207 7.73453 19.3445 7.59828 19.7408 7.59766C20.5766 7.59766 21.412 7.59766 22.247 7.59766C22.6714 7.59766 22.8008 7.72891 22.8008 8.16016C22.7991 10.4489 22.7983 12.7374 22.7983 15.0258ZM20.0252 8.41078V21.5883H21.9808V8.41078H20.0252Z" fill="white"/>
<path d="M14.8034 17.7906C14.8034 16.4473 14.8034 15.1044 14.8034 13.7619C14.8034 13.3244 14.9215 13.2044 15.3565 13.2031C16.1919 13.2031 17.0273 13.2031 17.8627 13.2031C18.2702 13.2031 18.3996 13.3281 18.4002 13.7344C18.4002 16.4427 18.4002 19.151 18.4002 21.8594C18.4002 22.2587 18.259 22.3981 17.8659 22.3994C17.0229 22.3994 16.1798 22.3994 15.3365 22.3994C14.9396 22.3994 14.804 22.2619 14.8034 21.8625C14.8025 20.5062 14.8025 19.149 14.8034 17.7906ZM15.6252 14.015V21.5887H17.584V14.015H15.6252Z" fill="white"/>
<path d="M10.4033 19.1952C10.4033 18.3052 10.4033 17.4152 10.4033 16.5252C10.4033 16.1427 10.542 16.0002 10.9245 15.9989C11.7749 15.9952 12.6258 15.9952 13.477 15.9989C13.852 15.9989 14.002 16.1489 14.0027 16.5258C14.0052 18.3058 14.0052 20.0858 14.0027 21.8658C14.0027 22.2595 13.8564 22.4027 13.4652 22.4039C12.6218 22.4039 11.7785 22.4039 10.9352 22.4039C10.5402 22.4039 10.4039 22.2639 10.4033 21.8652C10.402 20.9752 10.402 20.0852 10.4033 19.1952ZM11.2127 21.587H13.2027V17.4077C13.2027 16.7983 13.2027 16.7983 12.5977 16.7983H11.2127V21.587Z" fill="white"/>
<path d="M6 20.1963C6 19.6338 6 19.0713 6 18.5088C6 18.1438 6.14625 18.0012 6.515 18C7.37458 18 8.23375 18 9.0925 18C9.45437 18 9.60188 18.1488 9.6025 18.5163C9.605 19.6413 9.605 20.7663 9.6025 21.8913C9.6025 22.2525 9.44875 22.4006 9.08437 22.4019C8.22562 22.4044 7.36646 22.4044 6.50687 22.4019C6.14437 22.4019 6.00125 22.2513 6 21.8831C6 21.3206 6 20.7581 6 20.1963ZM8.78437 21.5925V18.815H6.8125V21.5925H8.78437Z" fill="white"/>
<path d="M3.41102 22.4034C2.97352 22.4034 2.53602 22.4034 2.09852 22.4034C1.74914 22.4003 1.59852 22.2509 1.59852 21.9034C1.59477 21.1697 1.59477 20.4359 1.59852 19.7022C1.59852 19.3522 1.74602 19.2072 2.09852 19.2059C2.96477 19.2022 3.83101 19.2022 4.69726 19.2059C5.06226 19.2059 5.19726 19.3516 5.19726 19.7247C5.19726 20.4426 5.19726 21.1605 5.19726 21.8784C5.19726 22.2578 5.05164 22.4022 4.67227 22.4041C4.25414 22.4053 3.83289 22.4034 3.41102 22.4034ZM4.38727 21.5909V20.0178H2.41039V21.5934L4.38727 21.5909Z" fill="white"/>
</g>
<defs>
<clipPath id="clip0_298_442">
<rect width="24" height="24" fill="white"/>
</clipPath>
</defs>
</svg>
