<svg width="24" height="24" viewBox="0 0 24 24" fill="none" xmlns="http://www.w3.org/2000/svg">
<g clip-path="url(#clip0_784_16)">
<path d="M24.0003 13.8922C23.9893 14.2966 23.9734 14.701 23.9679 15.1054C23.9606 15.6588 23.9624 16.2129 23.9575 16.7669C23.9575 17.1872 23.781 17.357 23.3558 17.3595C23.0828 17.3595 22.8097 17.3644 22.5367 17.3595C22.2215 17.3527 22.0089 17.1628 21.9985 16.8891C21.9894 16.6264 22.2007 16.4126 22.5086 16.3882C22.6546 16.3766 22.803 16.3882 22.9722 16.3882C22.9783 16.2978 22.9875 16.2233 22.9881 16.1487C22.9997 14.0657 23.0125 11.9833 23.015 9.90089C23.0081 9.78455 22.957 9.67525 22.872 9.59546C21.9118 8.78668 20.9458 7.98483 19.9741 7.1899C19.899 7.12599 19.8055 7.0875 19.7072 7.07995C18.4855 7.07262 17.2583 7.07506 16.0341 7.07628C15.9982 7.07865 15.9625 7.08335 15.9272 7.09033V16.4059C16.2259 16.4059 16.5277 16.3998 16.8294 16.4059C17.1452 16.4145 17.3291 16.5647 17.3633 16.8213C17.374 16.8829 17.372 16.9461 17.3576 17.0069C17.3432 17.0677 17.3166 17.125 17.2794 17.1753C17.2423 17.2256 17.1953 17.2679 17.1414 17.2995C17.0875 17.3312 17.0277 17.3516 16.9657 17.3595C16.8729 17.3715 16.7794 17.3762 16.6859 17.3735H11.1411C11.039 17.3766 10.9368 17.3707 10.8357 17.3558C10.728 17.3343 10.6312 17.2762 10.5615 17.1913C10.4919 17.1065 10.4539 17.0001 10.4539 16.8903C10.4539 16.7806 10.4919 16.6742 10.5615 16.5893C10.6312 16.5044 10.728 16.4463 10.8357 16.4249C10.9436 16.4085 11.0528 16.4015 11.1619 16.4041C12.316 16.4041 13.4701 16.4041 14.6242 16.4041H14.9156V4.83871H3.4999C3.49379 4.93034 3.48341 5.02197 3.4828 5.10932C3.4828 5.97491 3.4828 6.8411 3.4828 7.70669C3.48416 7.80795 3.47659 7.90913 3.4602 8.00906C3.43999 8.11718 3.38267 8.21486 3.29814 8.28523C3.21361 8.3556 3.10716 8.39425 2.99717 8.39451C2.8831 8.39441 2.77282 8.35353 2.68623 8.27927C2.59965 8.205 2.54246 8.10224 2.52497 7.98952C2.51456 7.91219 2.51027 7.83417 2.51214 7.75617C2.51214 6.67251 2.51214 5.58844 2.51214 4.50396C2.51214 4.01894 2.67402 3.85156 3.15293 3.85156C7.19274 3.85156 11.2323 3.85156 15.2717 3.85156C15.7342 3.85156 15.9058 4.02871 15.907 4.48869C15.907 5.01036 15.907 5.53203 15.907 6.09463H16.188C17.389 6.09463 18.5899 6.09891 19.7921 6.09463C20.0494 6.08574 20.3006 6.17456 20.4952 6.34325C21.5642 7.2406 22.6448 8.1239 23.7138 9.02125C23.836 9.12143 23.9087 9.27415 24.004 9.40243L24.0003 13.8922Z" fill="#0B1224"/>
<path d="M16.881 10.825C16.881 10.2007 16.881 9.57701 16.881 8.95332C16.881 8.54221 17.0551 8.36445 17.4601 8.36262C18.2322 8.35896 19.0043 8.34979 19.7752 8.37056C19.958 8.38211 20.1326 8.45069 20.2743 8.56665C20.7178 8.93316 21.1344 9.3351 21.5675 9.71628C21.6515 9.78575 21.7185 9.87361 21.7632 9.97306C21.8079 10.0725 21.8291 10.1809 21.8253 10.2899C21.821 11.1005 21.8253 11.9117 21.8253 12.7223C21.8253 13.156 21.642 13.3332 21.2144 13.3332C19.9752 13.3332 18.7356 13.3332 17.4955 13.3332C17.0606 13.3332 16.8883 13.1591 16.8847 12.7223C16.8798 12.0882 16.881 11.4566 16.881 10.825ZM20.8516 12.3411C20.8516 11.7065 20.8558 11.0925 20.8461 10.4786C20.8461 10.4084 20.7795 10.3253 20.7239 10.2722C20.4185 9.98567 20.1027 9.70529 19.7875 9.42673C19.74 9.37659 19.6777 9.34298 19.6097 9.33083C19.0355 9.3235 18.4607 9.32655 17.8718 9.32655V12.3399L20.8516 12.3411Z" fill="#0B1224"/>
<path d="M7.71425 20.1833C6.50781 20.1833 5.50294 19.1834 5.50783 17.9879C5.51539 17.4053 5.75252 16.8492 6.16771 16.4404C6.58289 16.0317 7.1426 15.8032 7.72525 15.8047C8.30589 15.8062 8.86217 16.0382 9.27172 16.4498C9.68126 16.8614 9.91052 17.4189 9.90906 17.9995C9.90761 18.5802 9.67555 19.1364 9.26394 19.546C8.85233 19.9555 8.2949 20.1848 7.71425 20.1833ZM7.70936 16.7796C7.38669 16.781 7.07745 16.909 6.84809 17.1359C6.61873 17.3629 6.48756 17.6708 6.48276 17.9934C6.48948 18.3202 6.6242 18.6313 6.85793 18.8597C7.09166 19.0882 7.40573 19.2158 7.73258 19.2151C8.05192 19.2043 8.35447 19.0694 8.57597 18.8392C8.79747 18.6089 8.92048 18.3013 8.91886 17.9818C8.91629 17.6625 8.7878 17.3571 8.56132 17.132C8.33485 16.9069 8.02868 16.7803 7.70936 16.7796Z" fill="#0B1224"/>
<path d="M19.6257 15.8027C20.2065 15.8011 20.7641 16.0303 21.176 16.4398C21.5878 16.8494 21.8201 17.4058 21.8217 17.9866C21.8233 18.5674 21.5942 19.125 21.1846 19.5369C20.7751 19.9487 20.2187 20.181 19.6379 20.1826C18.4479 20.1985 17.4229 19.1918 17.4131 17.9982C17.404 16.8143 18.4229 15.8027 19.6257 15.8027ZM20.8223 18.0018C20.8255 17.8441 20.7975 17.6873 20.7399 17.5405C20.6823 17.3936 20.5962 17.2596 20.4867 17.146C20.3771 17.0325 20.2462 16.9418 20.1015 16.879C19.9568 16.8162 19.8011 16.7826 19.6434 16.7801C18.9672 16.7716 18.3875 17.3329 18.3893 17.9951C18.3893 18.6451 18.9592 19.2064 19.6232 19.2168C20.272 19.2205 20.8181 18.6695 20.8223 18.0024V18.0018Z" fill="#0B1224"/>
<path d="M3.48235 14.224C2.52453 14.224 1.56752 14.224 0.611319 14.224C0.401184 14.224 0.225867 14.1629 0.118356 13.9729C0.073005 13.899 0.0499217 13.8136 0.0518719 13.7269C0.0538221 13.6403 0.0807225 13.556 0.129351 13.4842C0.251523 13.2857 0.444556 13.246 0.65408 13.2454C1.26127 13.2454 1.86847 13.2454 2.47627 13.2454H6.23121C6.30128 13.2428 6.37144 13.2442 6.44135 13.2496C6.75594 13.2863 6.94042 13.4873 6.92393 13.7701C6.90805 14.0383 6.7089 14.2185 6.39859 14.2203C5.42671 14.2264 4.45301 14.224 3.48235 14.224Z" fill="#0B1224"/>
<path d="M5.48104 8.78816C6.40751 8.78816 7.33439 8.78816 8.26167 8.78816C8.35491 8.78444 8.44828 8.79059 8.54022 8.80649C8.64743 8.83124 8.74314 8.89145 8.81188 8.97737C8.88061 9.06328 8.91834 9.16988 8.91895 9.2799C8.91591 9.38564 8.87793 9.4874 8.81097 9.56928C8.744 9.65117 8.6518 9.70858 8.54878 9.73255C8.45798 9.75309 8.36515 9.76334 8.27205 9.76309C6.40283 9.76309 4.53381 9.76309 2.66499 9.76309C2.54835 9.76596 2.43206 9.74903 2.32108 9.713C2.12194 9.64153 2.01565 9.42162 2.04619 9.20049C2.05876 9.09088 2.11073 8.98956 2.19242 8.9154C2.27411 8.84123 2.37997 8.79927 2.49029 8.79733C2.80121 8.78328 3.11336 8.79122 3.4249 8.79061L5.48104 8.78816Z" fill="#0B1224"/>
<path d="M4.47073 11.9732C3.5129 11.9732 2.55447 11.9763 1.5997 11.9732C1.20569 11.9732 0.959515 11.6947 1.07924 11.3624C1.1275 11.2304 1.27655 11.1253 1.39994 11.0343C1.46103 10.9897 1.56426 10.9965 1.64856 10.9965C3.5577 11.0074 5.46622 11.0199 7.37414 11.0337C7.65513 11.0337 7.84694 11.1559 7.90314 11.3703C7.95934 11.5847 7.91963 11.79 7.71988 11.9017C7.58278 11.9715 7.43084 12.0072 7.27701 12.0056C6.3424 12.0148 5.40779 12.0105 4.47256 12.0105L4.47073 11.9732Z" fill="#0B1224"/>
<path d="M3.48237 16.413C3.84889 16.413 4.18669 16.3934 4.52083 16.4185C4.59519 16.4236 4.66719 16.4467 4.73064 16.4858C4.79409 16.5249 4.84709 16.5788 4.88508 16.6429C4.92306 16.7071 4.94489 16.7795 4.94869 16.8539C4.95249 16.9283 4.93815 17.0026 4.90689 17.0702C4.87574 17.1556 4.81914 17.2293 4.74474 17.2814C4.67034 17.3335 4.58173 17.3615 4.4909 17.3616C3.98389 17.3671 3.47688 17.3738 2.97108 17.3616C2.69681 17.3543 2.52394 17.1716 2.51966 16.8919C2.50907 16.292 2.50907 15.6917 2.51966 15.0911C2.5222 14.9676 2.57261 14.85 2.66024 14.7631C2.74787 14.6761 2.86587 14.6266 2.98931 14.625C3.11275 14.6235 3.23197 14.6699 3.32181 14.7546C3.41164 14.8392 3.46505 14.9555 3.47077 15.0788C3.49092 15.3971 3.48115 15.7178 3.4836 16.0373C3.48237 16.1423 3.48237 16.2492 3.48237 16.413Z" fill="#0B1224"/>
</g>
<defs>
<clipPath id="clip0_784_16">
<rect width="24" height="24" fill="white"/>
</clipPath>
</defs>
</svg>
