<svg width="24" height="24" viewBox="0 0 24 24" fill="none" xmlns="http://www.w3.org/2000/svg">
<g clip-path="url(#clip0_784_7)">
<path d="M18.5625 24H0.374997C0.176872 23.8881 0.115621 23.7156 0.116246 23.4925C0.119163 15.8304 0.119163 8.16854 0.116246 0.506874C0.116246 0.283749 0.178747 0.111875 0.374997 0H15.6581C15.7656 0.1 15.8769 0.196251 15.9806 0.299376C16.8431 1.16 17.7012 2.02562 18.5687 2.88062C18.6483 2.95347 18.711 3.04274 18.7525 3.14225C18.7941 3.24176 18.8135 3.34912 18.8094 3.45687C18.8025 5.8075 18.805 8.15813 18.805 10.5088C18.805 10.8944 18.805 10.895 19.185 10.9631C20.3875 11.187 21.4872 11.7884 22.3245 12.68C23.1617 13.5717 23.6928 14.7071 23.8406 15.9212C24.135 18.3719 22.8662 20.6444 20.7356 21.7406C20.1301 22.0451 19.4773 22.2446 18.805 22.3306C18.805 22.7231 18.795 23.1044 18.8087 23.485C18.8169 23.7081 18.7537 23.8794 18.5625 24ZM0.882497 23.235H18.035V22.3706C14.9563 22.2794 12.5719 19.9044 12.3919 16.9613C12.3087 15.6044 12.6631 14.3575 13.4681 13.26C14.5969 11.7219 16.1412 10.9412 18.0419 10.8537V3.65625H17.8C17.0812 3.65625 16.3625 3.65625 15.6437 3.65625C15.2775 3.65625 15.1494 3.53125 15.1487 3.16438C15.1487 2.44625 15.1487 1.72688 15.1487 1.00875V0.762501H0.882497V23.235ZM16.695 17.0094C15.4925 15.9081 15.7437 14.4138 16.5194 13.6375C16.9278 13.2253 17.4785 12.9849 18.0584 12.9657C18.6384 12.9464 19.2038 13.1496 19.6387 13.5337C20.0707 13.9059 20.3402 14.432 20.39 15C20.4687 15.8013 20.175 16.4619 19.565 17.0088C20.815 17.5131 21.6481 18.3912 22.0819 19.6519C23.5194 17.8975 23.6231 14.8444 21.4756 12.9019C20.9817 12.4566 20.4037 12.1145 19.7758 11.8957C19.1478 11.6768 18.4824 11.5856 17.8187 11.6274C17.155 11.6693 16.5064 11.8432 15.9108 12.1391C15.3153 12.435 14.7848 12.8469 14.3506 13.3506C12.5294 15.4662 12.9881 18.2881 14.1937 19.635C14.6194 18.3831 15.4481 17.5131 16.6925 17.0094H16.695ZM18.1112 21.6156C19.2739 21.6183 20.4017 21.2186 21.3031 20.4844C21.3607 20.4479 21.4045 20.3935 21.4278 20.3294C21.4511 20.2654 21.4525 20.1955 21.4319 20.1306C21.1144 18.6238 19.7 17.4987 18.1194 17.51C16.5206 17.5212 15.1194 18.6606 14.8244 20.18C14.7969 20.3237 14.8575 20.3931 14.9537 20.4719C15.8417 21.2062 16.9565 21.6103 18.1087 21.6156H18.1112ZM19.6531 15.2225C19.6514 14.921 19.5601 14.6267 19.3908 14.3772C19.2215 14.1276 18.9819 13.9339 18.7024 13.8208C18.4229 13.7076 18.1161 13.68 17.8209 13.7415C17.5257 13.803 17.2554 13.9508 17.0443 14.1662C16.8333 14.3816 16.6909 14.6548 16.6354 14.9512C16.5799 15.2476 16.6137 15.5538 16.7325 15.831C16.8513 16.1081 17.0497 16.3437 17.3027 16.5079C17.5556 16.6721 17.8516 16.7575 18.1531 16.7531C18.352 16.7511 18.5485 16.7099 18.7314 16.6318C18.9144 16.5538 19.0801 16.4404 19.2192 16.2983C19.3583 16.1561 19.468 15.9879 19.542 15.8033C19.616 15.6187 19.6529 15.4214 19.6506 15.2225H19.6531ZM15.915 1.375V2.885H17.425L15.915 1.375Z" fill="#0B1224"/>
<path d="M0.375 0C0.17625 0.111875 0.115624 0.283749 0.116249 0.506874C0.119166 8.16896 0.119166 15.8308 0.116249 23.4925C0.116249 23.7156 0.17875 23.8881 0.375 24H0V0H0.375Z" fill="white"/>
<path d="M9.46987 11.0719H4.36112C4.27543 11.0756 4.18957 11.0731 4.10424 11.0644C4.02146 11.0583 3.94382 11.0219 3.88617 10.9622C3.82852 10.9024 3.7949 10.8236 3.79174 10.7406C3.77237 10.545 3.85799 10.405 4.04924 10.3481C4.13243 10.3278 4.21807 10.3194 4.30362 10.3231C7.7482 10.3231 11.193 10.3231 14.638 10.3231C14.7311 10.3192 14.8242 10.3316 14.913 10.36C14.9924 10.3855 15.0596 10.4396 15.1016 10.5117C15.1436 10.5838 15.1575 10.6689 15.1405 10.7506C15.134 10.8298 15.1003 10.9042 15.045 10.9612C14.9897 11.0182 14.9163 11.0542 14.8374 11.0631C14.7522 11.0734 14.6662 11.0766 14.5805 11.0725L9.46987 11.0719Z" fill="#0B1224"/>
<path d="M9.45791 7.94296H4.34978C4.25634 7.9473 4.16271 7.94186 4.07041 7.92671C3.99108 7.90803 3.92025 7.86344 3.86913 7.79997C3.818 7.73651 3.7895 7.65781 3.78814 7.57633C3.78677 7.49485 3.81263 7.41524 3.8616 7.35011C3.91057 7.28497 3.97988 7.23803 4.05853 7.21671C4.15023 7.19822 4.2438 7.19066 4.33728 7.19421C7.75853 7.19421 11.1794 7.19421 14.5998 7.19421C14.6778 7.19144 14.7558 7.19625 14.8329 7.20858C15.0379 7.24921 15.1454 7.37984 15.1398 7.58734C15.1323 7.78359 15.0185 7.90421 14.8229 7.93358C14.7374 7.94329 14.6514 7.94643 14.5654 7.94296H9.45791Z" fill="#0B1224"/>
<path d="M7.96981 4.07031C9.20231 4.07031 10.4354 4.07031 11.6686 4.07469C11.7909 4.0709 11.9116 4.10353 12.0154 4.16844C12.2436 4.33844 12.1723 4.69281 11.9004 4.78656C11.8107 4.81222 11.7174 4.82319 11.6242 4.81906C9.18169 4.81906 6.73919 4.81906 4.29669 4.81906C4.25006 4.82156 4.20332 4.82156 4.15669 4.81906C3.91794 4.79531 3.77607 4.64156 3.78669 4.42156C3.79669 4.21406 3.94107 4.07656 4.17732 4.07406C4.70794 4.06844 5.23981 4.07406 5.76919 4.07406L7.96981 4.07031Z" fill="#0B1224"/>
<path d="M7.75706 14.2031C6.59331 14.2031 5.43019 14.2068 4.26644 14.1974C4.12929 14.1987 3.99553 14.1547 3.88581 14.0724C3.67644 13.8881 3.79206 13.5343 4.06769 13.4662C4.12951 13.4549 4.19244 13.4509 4.25519 13.4543H11.3052C11.5796 13.4543 11.7308 13.5531 11.7683 13.7518C11.8171 14.0124 11.6433 14.2012 11.3408 14.2024C10.5446 14.2024 9.74831 14.2024 8.95144 14.2024L7.75706 14.2031Z" fill="#0B1224"/>
<path d="M7.80564 16.5856H11.2256C11.3036 16.582 11.3818 16.5843 11.4594 16.5925C11.5423 16.599 11.62 16.6358 11.6776 16.6958C11.7352 16.7559 11.7688 16.835 11.7719 16.9181C11.79 17.1056 11.7094 17.2425 11.5331 17.3C11.4357 17.3266 11.3347 17.338 11.2338 17.3337C8.93043 17.3337 6.62731 17.3337 4.32439 17.3337C4.27752 17.3337 4.23002 17.3337 4.18377 17.3337C3.92877 17.3162 3.77752 17.1644 3.78752 16.9369C3.79752 16.7094 3.94189 16.5869 4.19939 16.5862C5.39981 16.5842 6.60189 16.584 7.80564 16.5856Z" fill="#0B1224"/>
<path d="M7.76807 20.4588H4.34869C4.26291 20.4623 4.17697 20.4585 4.09182 20.4475C4.0076 20.433 3.93113 20.3894 3.87566 20.3243C3.8202 20.2593 3.78923 20.1769 3.78812 20.0914C3.787 20.006 3.81582 19.9228 3.86957 19.8563C3.92333 19.7899 3.99863 19.7443 4.08244 19.7275C4.18251 19.7123 4.28378 19.7064 4.38494 19.71C6.64952 19.71 8.91349 19.71 11.1768 19.71C11.278 19.7063 11.3793 19.7124 11.4793 19.7282C11.5633 19.7449 11.6388 19.7905 11.6926 19.8572C11.7463 19.9238 11.775 20.0072 11.7736 20.0928C11.7722 20.1784 11.7408 20.2608 11.6848 20.3257C11.6289 20.3905 11.5519 20.4336 11.4674 20.4475C11.3823 20.4585 11.2964 20.4623 11.2106 20.4588H7.76807Z" fill="#0B1224"/>
</g>
<defs>
<clipPath id="clip0_784_7">
<rect width="24" height="24" fill="white"/>
</clipPath>
</defs>
</svg>
