<svg width="20" height="20" viewBox="0 0 20 20" fill="none" xmlns="http://www.w3.org/2000/svg">
<g clip-path="url(#clip0_271_4799)">
<path d="M13.4371 7.81977L18.5446 2.74373L18.528 5.62104C18.5226 5.86091 18.7129 6.06962 18.9531 6.06427L19.2577 6.06398C19.4979 6.05834 19.6965 5.91554 19.7015 5.67566L19.714 1.38938C19.714 1.38524 19.6976 1.38198 19.6976 1.37782L19.7211 1.16051C19.7235 1.03998 19.6953 0.93251 19.6175 0.855638C19.5406 0.778153 19.4329 0.73095 19.3132 0.734216L19.0962 0.739263C19.092 0.739263 19.0888 0.740747 19.0843 0.741359L14.8263 0.722656C14.5864 0.728 14.3878 0.926313 14.3824 1.16648L14.3818 1.4711C14.4183 1.75402 14.6407 1.91938 14.8806 1.91403L17.6869 1.92146L12.5976 6.97991C12.3657 7.21177 12.3657 7.58761 12.5976 7.81977C12.8294 8.05133 13.2053 8.05133 13.4371 7.81977ZM7.00206 12.6L1.89463 17.6602L1.91096 14.7986C1.9166 14.5585 1.72599 14.3498 1.48611 14.3551L1.16283 14.3557C0.922363 14.3616 0.724031 14.5041 0.718984 14.7443L0.706516 19.0306C0.706516 19.0347 0.722844 19.0374 0.722844 19.0421L0.699391 19.2589C0.696719 19.3794 0.724922 19.4875 0.803 19.5638C0.879594 19.6416 0.987657 19.6885 1.107 19.6855L1.32431 19.6802C1.32845 19.6802 1.33142 19.6784 1.33619 19.6784L5.61296 19.6971C5.85284 19.6911 6.05117 19.4928 6.05679 19.2529L6.05738 18.9481C6.02089 18.6657 5.79851 18.4998 5.55863 18.5051L2.75229 18.4977L7.84133 13.4398C8.07319 13.208 8.07319 12.8321 7.84133 12.6003C7.60947 12.3684 7.2339 12.3681 7.00204 12.6H7.00206ZM19.7143 19.0303L19.7018 14.744C19.6965 14.5038 19.4979 14.3613 19.258 14.3554L18.9534 14.3548C18.7132 14.3494 18.5232 14.5584 18.5283 14.7983L18.5449 17.6756L13.4372 12.5999C13.2053 12.3681 12.8295 12.3681 12.5976 12.5999C12.3657 12.8318 12.3657 13.2076 12.5976 13.4395L17.6867 18.4973L14.8806 18.5048C14.6407 18.4994 14.4183 18.6654 14.3818 18.9477L14.3824 19.2526C14.3881 19.4928 14.5867 19.6911 14.8263 19.6967L19.0846 19.678C19.0891 19.678 19.0924 19.6798 19.0965 19.6798L19.3135 19.6851C19.4332 19.6881 19.5412 19.6412 19.6178 19.5634C19.6956 19.4868 19.7235 19.3791 19.7214 19.2585L19.698 19.0418C19.698 19.0371 19.7143 19.0344 19.7143 19.0303L19.7143 19.0303ZM2.7523 1.92192L5.55897 1.91455C5.79884 1.9199 6.0212 1.75424 6.05772 1.4716L6.05712 1.16673C6.05117 0.926572 5.85282 0.727944 5.61328 0.722897L1.33619 0.741304C1.33144 0.74071 1.32847 0.739226 1.32431 0.739226L1.107 0.73416C0.987675 0.730913 0.879316 0.778116 0.803 0.855582C0.724922 0.932473 0.696737 1.03994 0.699391 1.16047L0.722844 1.37779C0.722844 1.38192 0.706516 1.38491 0.706516 1.38936L0.718984 5.67565C0.724328 5.91552 0.92266 6.05832 1.16283 6.06396L1.48613 6.06424C1.72601 6.06958 1.91628 5.86088 1.91094 5.621L1.89461 2.75942L7.00206 7.81966C7.23362 8.05154 7.60978 8.05154 7.84166 7.81966C8.07354 7.58778 8.07352 7.21166 7.84166 6.9798L2.7523 1.92192Z" fill="#0B1224"/>
</g>
<defs>
<clipPath id="clip0_271_4799">
<rect width="19" height="19" fill="white" transform="translate(0.710938 0.709961)"/>
</clipPath>
</defs>
</svg>
