<svg width="21" height="20" viewBox="0 0 21 20" fill="none" xmlns="http://www.w3.org/2000/svg">
<path d="M20.0021 5.41894C19.9537 5.65916 19.9166 5.90211 19.8545 6.13882C19.4986 7.4985 18.678 8.47384 17.4042 9.06326C17.2691 9.12575 17.232 9.19684 17.2324 9.33902C17.2368 12.3076 17.2378 15.277 17.2355 18.2471C17.2355 18.7502 17.0429 18.9443 16.5441 18.9447L5.4725 18.9474H4.16242C4.00892 19.3291 3.67261 19.4603 3.24099 19.4373C3.00663 19.4244 2.77227 19.4349 2.53791 19.4349C1.90006 19.4349 1.70436 19.2841 1.54539 18.6486C1.34814 18.6486 1.14307 18.6486 0.938004 18.6486C0.3521 18.6439 0.0396188 18.3299 0.0396188 17.742C0.0396188 17.1171 0.0396188 16.4933 0.0396188 15.8707C0.0396188 15.8316 0.0396188 15.7925 0.0396188 15.7535C0.0548523 15.5711 0.174376 15.4496 0.334523 15.4516C0.49467 15.4535 0.61771 15.5762 0.621616 15.7601C0.628256 16.0781 0.623959 16.3968 0.623959 16.7151C0.623959 17.0725 0.621616 17.43 0.623959 17.7874C0.625912 17.9858 0.696611 18.0553 0.897381 18.0608C1.11065 18.0647 1.32392 18.0608 1.55047 18.0608V14.0009C1.31025 14.0009 1.07159 13.9934 0.833713 14.004C0.697002 14.0098 0.629428 14.1048 0.625912 14.2407C0.622788 14.3579 0.632553 14.475 0.618882 14.5922C0.599742 14.7547 0.501701 14.8531 0.333742 14.8559C0.174767 14.8582 0.0638361 14.766 0.0513368 14.6149C0.0303709 14.4214 0.036286 14.2259 0.0689139 14.0341C0.143128 13.663 0.452876 13.4259 0.840353 13.415C1.07471 13.4083 1.30908 13.415 1.5493 13.415C1.56375 13.3509 1.57703 13.2978 1.58836 13.2404C1.66882 12.874 1.94302 12.6416 2.32073 12.6353C2.69103 12.6291 3.06288 12.6298 3.43161 12.6353C3.82221 12.6408 4.09368 12.8623 4.1843 13.2415C4.19445 13.2853 4.20539 13.3286 4.21789 13.3814C4.31757 13.3479 4.40959 13.2949 4.48859 13.2255C4.56758 13.1561 4.63198 13.0716 4.67802 12.9771C4.85731 12.6388 5.03268 12.2986 5.19908 11.9537C5.23814 11.8756 5.23814 11.7779 5.23814 11.6889C5.24049 10.5389 5.24049 9.38889 5.23814 8.23869C5.23814 7.75864 5.41508 7.5817 5.89474 7.5817H11.8827C11.8292 7.49264 11.7948 7.43484 11.76 7.37664C10.8265 5.81345 10.8155 4.22682 11.7561 2.69136C12.7111 1.13091 14.1525 0.428216 15.9891 0.575863C16.2195 0.594221 16.3449 0.716871 16.3309 0.89147C16.316 1.07271 16.1648 1.18247 15.9281 1.15864C15.2813 1.0938 14.654 1.17466 14.0618 1.4387C12.6584 2.06367 11.8354 3.14173 11.6967 4.67797C11.6074 5.60273 11.8559 6.52858 12.3963 7.28433C12.9367 8.04007 13.7324 8.57459 14.6364 8.78905C16.7773 9.30504 19.1151 7.85161 19.3861 5.51346C19.5861 3.78974 18.7268 2.2285 17.1597 1.48753C17.1304 1.47386 17.0999 1.46175 17.0718 1.44612C16.9039 1.35277 16.8414 1.20708 16.9046 1.05943C16.9196 1.0211 16.9428 0.986494 16.9724 0.958005C17.0021 0.929517 17.0377 0.90783 17.0766 0.894451C17.1155 0.881072 17.1568 0.876321 17.1978 0.880528C17.2387 0.884734 17.2782 0.897798 17.3136 0.918812C17.6398 1.09029 17.9776 1.2559 18.269 1.4762C19.2701 2.23006 19.8209 3.25032 19.9701 4.49126C19.9779 4.52841 19.9887 4.56486 20.0025 4.60024L20.0021 5.41894ZM16.6386 18.3526V9.38902L14.9673 9.4894C14.9673 9.80813 14.9673 10.1636 14.9673 10.519C14.9673 10.844 14.9739 11.169 14.9649 11.4936C14.9579 11.7596 14.7364 11.9018 14.5298 11.7861C14.397 11.7115 14.3794 11.5873 14.3798 11.4514C14.3798 10.8018 14.3759 10.1519 14.3841 9.50229C14.386 9.35933 14.3392 9.29918 14.2056 9.25934C13.6134 9.08083 13.0697 8.7996 12.6283 8.36681C12.378 8.12151 12.112 8.16565 11.812 8.18284V8.409C11.812 9.18864 11.812 9.96828 11.812 10.7479C11.812 10.9432 11.7667 11.1116 11.5776 11.2041C11.3968 11.2928 11.239 11.2295 11.0921 11.1143C10.8113 10.8936 10.5238 10.6811 10.25 10.4503C10.1371 10.3558 10.0644 10.3608 9.95349 10.4503C9.64609 10.6995 9.33556 10.9467 9.01097 11.1729C8.76958 11.3412 8.47467 11.2053 8.41413 10.9171C8.3985 10.8343 8.39143 10.7501 8.39303 10.6659C8.39147 9.90578 8.39147 9.14567 8.39303 8.38556V8.17776H5.84631V11.1795C6.04434 11.2459 6.23691 11.2729 6.38925 11.3682C6.91617 11.7014 7.08999 12.3353 6.83219 12.9056C6.75407 13.081 6.66228 13.2517 6.56267 13.4525H6.79703C7.90127 13.4525 9.00589 13.4497 10.1101 13.4525C10.6304 13.4525 11.003 13.7286 11.0937 14.1915C11.1233 14.3438 11.0983 14.5067 11.0983 14.6813C11.6393 14.6399 12.078 14.8184 12.228 15.3769C12.3619 15.8773 12.137 16.2449 11.7284 16.4257C11.7026 16.6964 11.7249 16.9378 11.6503 17.1448C11.5077 17.5421 11.1792 17.7108 10.7624 17.7108H9.80545V18.344H14.3817V12.9009C14.3797 12.8295 14.3815 12.7581 14.3872 12.6869C14.4044 12.5306 14.495 12.4384 14.6528 12.4279C14.8106 12.4174 14.9145 12.4966 14.9505 12.6498C14.9651 12.726 14.971 12.8038 14.968 12.8814C14.968 14.6289 14.968 16.3765 14.968 18.1241V18.3526H16.6386ZM6.66111 18.335V18.3572C7.36914 18.3572 8.0773 18.3572 8.78559 18.3572C8.86315 18.3593 8.9406 18.3503 9.01565 18.3307C9.08314 18.314 9.1422 18.2732 9.1817 18.216C9.2212 18.1588 9.23842 18.0892 9.2301 18.0202C9.21916 17.8639 9.13635 17.751 8.9641 17.7358C8.86098 17.7268 8.75747 17.7182 8.65161 17.717C8.30007 17.7131 7.94853 17.717 7.59972 17.7088C7.43567 17.7045 7.33333 17.6073 7.3263 17.4385C7.31927 17.2698 7.4095 17.1706 7.57277 17.1417C7.6432 17.131 7.71444 17.1266 7.78565 17.1284C8.74054 17.1268 9.69556 17.1261 10.6507 17.1261C10.722 17.1282 10.7934 17.1255 10.8644 17.1179C11.0374 17.0936 11.1335 16.9835 11.1378 16.8155C11.1417 16.6569 11.0526 16.5445 10.8948 16.5031C10.8305 16.4913 10.7649 16.4875 10.6995 16.4917C9.81626 16.4917 8.93285 16.4917 8.04931 16.4917C7.98413 16.4953 7.91875 16.493 7.854 16.4847C7.69308 16.4542 7.59738 16.3546 7.60285 16.1878C7.60792 16.0316 7.70323 15.9382 7.85596 15.9125C7.92076 15.9049 7.9861 15.9028 8.05126 15.9062C9.10354 15.9062 10.156 15.9062 11.2085 15.9062C11.2796 15.9062 11.3628 15.9222 11.419 15.8914C11.5085 15.8429 11.6264 15.7742 11.646 15.691C11.6682 15.5965 11.628 15.4461 11.5581 15.3816C11.48 15.3094 11.3374 15.2777 11.2226 15.277C10.1765 15.2695 9.13049 15.273 8.08485 15.2715C8.00072 15.274 7.91662 15.266 7.83447 15.2477C7.68917 15.2086 7.62238 15.1031 7.63136 14.9559C7.63062 14.8932 7.65286 14.8324 7.69387 14.785C7.73489 14.7375 7.79185 14.7068 7.854 14.6985C7.93154 14.6868 8.00999 14.6822 8.08837 14.6848C8.73794 14.6848 9.38751 14.6848 10.0371 14.6848C10.1148 14.6855 10.1924 14.6798 10.2691 14.6676C10.338 14.6595 10.4016 14.6266 10.448 14.575C10.4944 14.5233 10.5204 14.4566 10.521 14.3872C10.5324 14.2333 10.4499 14.1231 10.3054 14.077C10.2181 14.0528 10.1276 14.042 10.0371 14.045C8.89379 14.045 7.75049 14.045 6.6072 14.045C6.05802 14.045 5.80998 13.6407 6.05098 13.1501C6.14512 12.9583 6.24941 12.7701 6.32441 12.5705C6.41776 12.3197 6.33495 12.0967 6.1502 11.9147C6.01661 11.783 5.94318 11.7975 5.85607 11.9689C5.66077 12.3498 5.46782 12.7322 5.2733 13.1134C5.07526 13.5013 4.80848 13.8216 4.37491 13.9536C4.23664 13.9958 4.20383 14.0637 4.20422 14.1997C4.2093 15.4859 4.20734 16.7722 4.20734 18.0584C4.20734 18.3178 4.20734 18.3319 4.47764 18.3365C5.20768 18.3401 5.93615 18.335 6.66228 18.335H6.66111ZM2.15317 16.0433C2.15317 16.8875 2.15317 17.7316 2.15317 18.5756C2.15317 18.7967 2.19809 18.8428 2.41253 18.8447C2.73087 18.8474 3.04882 18.8412 3.36716 18.8467C3.5484 18.8502 3.62847 18.7744 3.62456 18.5916C3.61871 18.3127 3.62456 18.0334 3.62456 17.7542V13.5462C3.62456 13.2443 3.59644 13.2169 3.28708 13.2169C3.00819 13.2169 2.72891 13.2169 2.44963 13.2169C2.19848 13.2169 2.15473 13.2603 2.15434 13.5106C2.15278 14.3549 2.15239 15.1991 2.15317 16.0433ZM11.2151 8.18792C11.1877 8.17985 11.1596 8.17448 11.1312 8.1719C10.4632 8.1719 9.7953 8.1719 9.12737 8.16721C8.97738 8.16721 8.98128 8.25041 8.98167 8.3547C8.98167 8.95779 8.98167 9.56088 8.98167 10.164V10.4737C9.28361 10.2394 9.54531 10.0296 9.8117 9.82727C10.025 9.66478 10.1793 9.66595 10.3949 9.82727C10.53 9.92805 10.6605 10.0351 10.7937 10.1398C10.9269 10.2444 11.0636 10.346 11.2144 10.4612L11.2151 8.18792Z" fill="white"/>
</svg>
