<svg width="26" height="26" viewBox="0 0 26 26" fill="none" xmlns="http://www.w3.org/2000/svg">
<path d="M24.4037 11.4282C24.3731 11.5064 24.3425 11.5786 24.318 11.6567C24.018 12.5467 23.0812 13.0458 22.1628 12.8053C22.0158 12.7692 21.9301 12.7812 21.826 12.8895C21.4647 13.2563 21.0912 13.6111 20.73 13.9779C20.5279 14.1883 20.2891 14.2785 19.9952 14.2725C19.585 14.2605 19.1686 14.2725 18.7584 14.2665C18.3176 14.2605 17.993 13.9598 17.993 13.5629C17.993 13.1781 18.3053 12.8774 18.7339 12.8654C19.0462 12.8594 19.3585 12.8714 19.6768 12.8594C19.7687 12.8534 19.8728 12.8173 19.9401 12.7632C20.2585 12.4685 20.5647 12.1679 20.8647 11.8552C20.9137 11.8011 20.9382 11.6808 20.9198 11.6086C20.6075 10.43 21.4954 9.32359 22.7261 9.37169C23.4792 9.40176 24.1466 9.93093 24.3609 10.6706C24.3731 10.7187 24.3976 10.7668 24.416 10.8149C24.4037 11.0073 24.4037 11.2178 24.4037 11.4282Z" fill="#EB1D23"/>
<path d="M15.4949 11.771C16.1072 11.9754 16.2174 12.1318 16.2174 12.7451C16.2174 13.6712 16.2174 14.5912 16.2174 15.5172C16.2174 16.0825 15.9419 16.3531 15.3541 16.3591C13.5478 16.3591 11.7416 16.3591 9.93529 16.3591C9.34137 16.3591 9.07196 16.0885 9.07196 15.5052C9.07196 14.5491 9.07196 13.599 9.07196 12.6429C9.07196 12.0777 9.35362 11.801 9.93529 11.801C11.215 11.801 12.4886 11.801 13.7682 11.801C13.8601 11.801 13.9519 11.801 14.0499 11.801C14.056 11.7409 14.0683 11.6988 14.0683 11.6567C14.0683 11.0313 14.0683 10.412 14.0683 9.78659C14.0683 9.50397 13.9336 9.36566 13.6519 9.36566C12.9784 9.35965 12.3049 9.35965 11.6313 9.36566C11.3558 9.36566 11.2272 9.50397 11.2211 9.77457C11.2211 9.87078 11.2211 9.96699 11.2211 10.0692C11.2089 10.4661 10.9027 10.7668 10.5047 10.7607C10.1129 10.7607 9.81896 10.4661 9.80059 10.0812C9.7761 9.57613 9.81896 9.08905 10.1496 8.66812C10.5047 8.21713 10.9701 7.9766 11.5456 7.96457C12.2804 7.95254 13.0151 7.95254 13.7499 7.96457C14.7112 7.9766 15.4827 8.73427 15.4949 9.67234C15.501 10.3639 15.4949 11.0674 15.4949 11.771Z" fill="#EB1D23"/>
<path d="M4.09404 7.26704C4.09404 6.71983 4.08791 6.17262 4.10016 5.6194C4.10628 5.439 4.05118 5.34279 3.88586 5.24658C3.18172 4.84369 2.86945 4.0319 3.096 3.2622C3.31643 2.51655 4.04505 1.98738 4.84716 2.00542C5.61865 2.02346 6.31666 2.55263 6.52484 3.28024C6.73914 4.04392 6.42687 4.84369 5.73498 5.24658C5.56354 5.34279 5.51456 5.45103 5.52068 5.63744C5.53292 6.53342 5.53292 7.42338 5.52068 8.31936C5.52068 8.48773 5.56354 8.57192 5.72886 8.63205C6.32891 8.87258 6.92283 9.13115 7.51675 9.38371C7.94536 9.57012 8.12292 9.95497 7.9576 10.3338C7.79228 10.7126 7.38205 10.857 6.95344 10.6766C6.15746 10.3458 5.36761 10.0091 4.57775 9.67836C4.25323 9.54006 4.09404 9.31155 4.09404 8.96278C4.10016 8.39753 4.09404 7.83229 4.09404 7.26704Z" fill="#EB1D23"/>
<path d="M22.977 20.9051C22.977 21.6929 22.4443 22.3844 21.6728 22.5889C20.9136 22.7933 20.087 22.4926 19.689 21.8192C19.5788 21.6388 19.4625 21.6027 19.2727 21.6027C18.293 21.6087 17.3133 21.6027 16.3337 21.6087C15.9663 21.6147 15.7091 21.4764 15.5315 21.1577C15.0907 20.376 14.6254 19.6063 14.1845 18.8306C13.9212 18.3736 14.1478 17.8684 14.6498 17.7602C14.9499 17.6941 15.2499 17.8384 15.4336 18.145C15.801 18.7704 16.1683 19.3958 16.5235 20.0212C16.5969 20.1475 16.6765 20.1956 16.8296 20.1956C17.6623 20.1896 18.495 20.1896 19.3339 20.1956C19.4992 20.1956 19.591 20.1415 19.6706 20.0031C20.0809 19.3176 20.8891 18.9989 21.6606 19.2034C22.4443 19.4259 22.977 20.1114 22.977 20.9051Z" fill="#EB1D23"/>
<path d="M17.8338 3.40651C18.3359 3.40651 18.8441 3.4005 19.3462 3.40651C19.4931 3.40651 19.5727 3.37043 19.6523 3.23814C20.0626 2.52857 20.8892 2.20385 21.679 2.42033C22.4444 2.6308 22.9771 3.32232 22.9771 4.11006C22.9771 4.90382 22.4444 5.58933 21.6484 5.79979C20.8769 6.00424 20.0687 5.67953 19.6585 4.99401C19.5789 4.86172 19.4993 4.8076 19.3401 4.8076C18.489 4.81362 17.644 4.81362 16.7929 4.8076C16.646 4.8076 16.5603 4.8497 16.4745 4.97597C16.1194 5.51717 15.752 6.05235 15.3847 6.58753C15.2132 6.83408 14.9683 6.94833 14.6744 6.90022C14.3866 6.85813 14.1662 6.68976 14.1172 6.40713C14.0866 6.22674 14.0927 5.99823 14.1846 5.85391C14.6438 5.12631 15.1397 4.42275 15.6234 3.71319C15.7704 3.49671 15.9908 3.40651 16.2541 3.40651C16.7807 3.40651 17.3073 3.40651 17.8338 3.40651Z" fill="#EB1D23"/>
<path d="M6.09007 13.9057C5.59411 13.7794 5.22061 14.0079 4.88385 14.3266C4.87161 14.3386 4.85936 14.3507 4.84711 14.3567C4.49811 14.5551 4.36953 14.7957 4.43688 15.2346C4.55934 16.1065 3.82459 16.9063 2.88778 17.0446C2.03057 17.1709 1.13662 16.5696 0.940687 15.7217C0.787614 15.0723 0.94681 14.495 1.44277 14.038C1.94485 13.575 2.53877 13.4367 3.20005 13.6351C3.34087 13.6772 3.43272 13.6652 3.54905 13.575C3.91031 13.2743 4.27768 12.9736 4.66343 12.709C4.82262 12.6008 5.03693 12.5287 5.22674 12.5166C5.66759 12.4866 6.11456 12.5046 6.55541 12.5106C6.97789 12.5106 7.30241 12.8113 7.30853 13.2021C7.31465 13.599 6.98402 13.9057 6.54929 13.9057C6.39621 13.9057 6.24314 13.9057 6.09007 13.9057Z" fill="#EB1D23"/>
<path d="M6.59826 19.5041C6.65336 19.5041 6.71459 19.486 6.75745 19.5041C7.08809 19.6424 7.24116 19.4499 7.40036 19.2154C7.73712 18.7223 8.09837 18.2473 8.44738 17.7662C8.72291 17.3874 9.15764 17.2912 9.50052 17.5317C9.84953 17.7722 9.89239 18.1932 9.61073 18.584C9.18825 19.1673 8.77189 19.7446 8.34329 20.3219C8.25145 20.4481 8.22695 20.5564 8.28206 20.7127C8.59433 21.6568 8.06163 22.649 7.10646 22.9256C6.13291 23.2082 5.13488 22.661 4.86547 21.6989C4.55932 20.5985 5.42265 19.498 6.59826 19.5041Z" fill="#EB1D23"/>
</svg>
