<svg width="26" height="26" viewBox="0 0 26 26" fill="none" xmlns="http://www.w3.org/2000/svg">
<path d="M3 17.3466C3.11907 17.1023 3.31476 17.0192 3.58399 17.0244C4.24064 17.0367 4.8973 17.0284 5.55396 17.0284H5.79911C5.79911 16.9329 5.79911 16.8511 5.79911 16.7696C5.82362 13.1507 5.84697 9.53255 5.86915 5.91511C5.87265 5.20154 6.13181 4.62894 6.69829 4.19773C7.0971 3.89348 7.55719 3.79236 8.05188 3.79279C11.118 3.7963 14.1842 3.7963 17.2503 3.79279C18.413 3.79279 19.5771 3.76171 20.7385 3.80155C21.9708 3.84533 22.944 4.65958 22.9567 5.96501C22.9777 8.10177 22.9637 10.239 22.9615 12.3762C22.9615 12.7146 22.7886 12.8744 22.4305 12.8757C21.5597 12.8787 20.6894 12.8757 19.8192 12.8757H19.5718V13.1309C19.5718 15.2164 19.5749 17.3015 19.5718 19.3866C19.5718 20.6194 18.8596 21.635 17.7174 22.0133C17.4281 22.1095 17.1254 22.1595 16.8204 22.1617C13.1826 22.1695 9.54511 22.1529 5.90724 22.1674C4.79749 22.1717 3.9307 21.7712 3.36817 20.8103C3.18999 20.5038 3.11995 20.1365 3.00044 19.7973L3 17.3466ZM6.66677 17.0284H14.3825C14.857 17.0284 14.9923 17.1667 14.9954 17.6447C14.9989 18.3071 14.9717 18.9721 15.0194 19.6313C15.0698 20.3256 15.4572 20.8352 16.0902 21.1198C16.7548 21.4201 17.3974 21.3387 17.9775 20.8921C18.5006 20.4894 18.7037 19.9343 18.7037 19.2877C18.7037 14.8898 18.7028 10.4919 18.7011 6.09372C18.7011 5.61217 18.7939 5.16652 19.0693 4.76596C19.0824 4.73817 19.0917 4.70871 19.0968 4.6784C19.057 4.67534 19.0312 4.67184 19.0053 4.67184C15.3152 4.67184 11.6253 4.67184 7.93543 4.67184C7.22449 4.67184 6.74907 5.16302 6.74382 5.88359C6.71755 9.52146 6.69201 13.1593 6.66721 16.7972C6.66633 16.8655 6.66677 16.9303 6.66677 17.0284ZM3.89305 17.907C3.88347 17.9462 3.87718 17.9862 3.87423 18.0265C3.88036 18.5781 3.86941 19.1305 3.89962 19.6808C3.94602 20.5375 4.75415 21.2866 5.61349 21.287C8.62652 21.289 11.6397 21.289 14.653 21.287C14.7007 21.287 14.7485 21.2796 14.815 21.2739C14.7826 21.2301 14.7655 21.2025 14.7458 21.1784C14.4031 20.7617 14.1767 20.2871 14.1443 19.7487C14.1119 19.2102 14.1224 18.6718 14.1146 18.1333C14.1146 18.0589 14.1146 17.9845 14.1146 17.9074L3.89305 17.907ZM22.0675 12.0006C22.0758 11.9767 22.0818 11.952 22.0855 11.927C22.0855 9.94654 22.0938 7.96563 22.0829 5.98515C22.0798 5.4051 21.7414 4.95595 21.248 4.79004C20.3944 4.50242 19.5758 5.10085 19.5736 6.02674C19.5683 7.96869 19.5736 9.9102 19.5736 11.8522C19.576 11.9018 19.581 11.9514 19.5885 12.0006H22.0675Z" fill="white"/>
<path d="M12.4703 14.7916C11.2492 14.7916 10.0284 14.7916 8.80792 14.7916C8.72375 14.7929 8.6396 14.7877 8.5562 14.7763C8.4572 14.7641 8.36563 14.7175 8.2976 14.6446C8.22956 14.5716 8.1894 14.4771 8.18418 14.3775C8.17895 14.2778 8.20899 14.1796 8.26902 14.0999C8.32905 14.0203 8.41523 13.9643 8.51242 13.9419C8.58844 13.924 8.66635 13.9153 8.74444 13.9161C11.2374 13.9161 13.7307 13.9161 16.2242 13.9161C16.6094 13.9161 16.8187 14.1144 16.7679 14.4278C16.7586 14.5125 16.7218 14.5917 16.6631 14.6535C16.6044 14.7152 16.5272 14.7561 16.4431 14.7697C16.3473 14.7868 16.2501 14.794 16.1528 14.7912C14.925 14.7915 13.6975 14.7916 12.4703 14.7916Z" fill="white"/>
<path d="M12.4714 10.7919C13.7375 10.7919 15.0033 10.7919 16.2691 10.7919C16.6053 10.7919 16.8005 10.981 16.7738 11.2669C16.767 11.3614 16.7281 11.4508 16.6636 11.5203C16.599 11.5897 16.5126 11.635 16.4188 11.6486C16.3416 11.6587 16.2637 11.6626 16.1859 11.6604C13.7186 11.6604 11.2515 11.6604 8.78452 11.6604C8.39315 11.6604 8.19046 11.5155 8.18564 11.2323C8.18039 10.942 8.38702 10.791 8.79021 10.791C10.0171 10.791 11.2442 10.7913 12.4714 10.7919Z" fill="white"/>
<path d="M10.6817 8.53743C10.0251 8.53743 9.36841 8.54312 8.71569 8.53218C8.58151 8.52949 8.45059 8.49029 8.33702 8.41879C8.19956 8.32817 8.15753 8.16883 8.19868 8.00247C8.21413 7.92546 8.25153 7.85456 8.30637 7.79832C8.36121 7.74208 8.43115 7.70291 8.50775 7.68553C8.58393 7.66901 8.66187 7.66209 8.73977 7.66495C10.0373 7.66495 11.3353 7.66189 12.6329 7.66714C12.7546 7.66638 12.8751 7.69192 12.9861 7.742C13.1468 7.81992 13.205 7.97314 13.1845 8.15044C13.18 8.23223 13.1497 8.31051 13.098 8.37399C13.0462 8.43748 12.9756 8.4829 12.8964 8.50372C12.8091 8.52726 12.7189 8.53817 12.6285 8.53611C11.9793 8.53874 11.3305 8.53743 10.6817 8.53743Z" fill="white"/>
</svg>
