<svg width="26" height="26" viewBox="0 0 26 26" fill="none" xmlns="http://www.w3.org/2000/svg">
<path d="M12.0628 23.0006C11.7659 22.9757 11.4685 22.9489 11.1717 22.9255C9.78592 22.8159 8.42216 22.5932 7.1038 22.1414C6.33085 21.8768 5.59012 21.5464 4.9705 20.9967C4.65848 20.7199 4.41532 20.3938 4.29423 19.9908C4.07108 19.2491 4.3245 18.6365 4.84159 18.1127C5.35868 17.5888 6.01639 17.2603 6.69706 16.9952C7.60331 16.6438 8.54325 16.4163 9.50077 16.2559C9.54374 16.2486 9.58573 16.2345 9.64335 16.2199C9.6077 16.157 9.58231 16.1068 9.55204 16.0595C8.8787 15.0093 8.19266 13.9674 7.53397 12.9085C6.68241 11.5357 6.36796 10.0391 6.65555 8.44891C7.06864 6.15846 8.35087 4.49228 10.4837 3.57805C12.6809 2.63507 14.8138 2.89579 16.7693 4.28712C18.1243 5.25057 18.9666 6.57757 19.304 8.20037C19.6516 9.87338 19.3738 11.4562 18.4641 12.9114C17.805 13.9665 17.1214 15.0098 16.4466 16.0595C16.4163 16.1083 16.3909 16.157 16.3548 16.2208C16.7454 16.3003 17.1209 16.367 17.4925 16.4548C18.5525 16.7018 19.5921 17.0079 20.5198 17.6034C21.0306 17.9314 21.4715 18.3256 21.6829 18.9221C21.8943 19.5186 21.7806 20.061 21.4231 20.562C21.0657 21.0629 20.554 21.3968 20.0105 21.6716C18.8973 22.2359 17.701 22.5415 16.4749 22.7199C15.6844 22.8354 14.8846 22.8875 14.0891 22.9689C14.0252 22.9752 13.9617 22.9898 13.8982 23.0006H12.0628ZM12.9964 19.2749C13.052 19.1921 13.094 19.1356 13.1302 19.0766C14.5335 16.8836 15.9305 14.6843 17.3416 12.4976C18.4593 10.7632 18.6053 8.95525 17.6834 7.11753C16.8391 5.42747 15.4265 4.44355 13.5413 4.25252C11.5506 4.05076 9.93876 4.80661 8.73954 6.40213C7.47342 8.08585 7.39286 10.5205 8.52421 12.2871C9.51509 13.8352 10.507 15.3828 11.4998 16.9299C11.9944 17.7018 12.4851 18.4738 12.9964 19.2749ZM12.9964 21.8578C13.7288 21.809 14.4646 21.7793 15.1961 21.7116C16.4695 21.5975 17.7185 21.3563 18.9124 20.8856C19.4578 20.6702 19.991 20.4236 20.3914 19.9728C20.6917 19.6346 20.7117 19.3178 20.3816 19.0132C20.0848 18.7337 19.751 18.4961 19.3894 18.3071C18.2439 17.7291 16.9969 17.4937 15.7371 17.3261C15.6883 17.3193 15.6106 17.3748 15.5784 17.4236C15.3421 17.7808 15.1136 18.1434 14.8826 18.5045C14.4319 19.2106 13.9837 19.9177 13.5306 20.6224C13.3162 20.9552 12.9417 21.0469 12.6629 20.832C12.5737 20.7567 12.4978 20.6671 12.4383 20.5668C11.7716 19.5272 11.1079 18.4876 10.4471 17.4479C10.3846 17.3505 10.3294 17.3017 10.2 17.3285C9.9202 17.3851 9.63407 17.4114 9.35331 17.4635C8.32059 17.6541 7.30253 17.9021 6.38358 18.427C6.08705 18.6005 5.81567 18.8137 5.57694 19.0605C5.30643 19.3354 5.32352 19.6419 5.57694 19.9323C5.70491 20.0788 5.8498 20.2097 6.00858 20.3222C6.62284 20.7525 7.32059 21.0045 8.03495 21.2052C9.65604 21.6682 11.3162 21.8198 12.9954 21.8588L12.9964 21.8578Z" fill="white"/>
<path d="M12.9941 6.5879C13.5734 6.58674 14.1401 6.75702 14.6224 7.0772C15.1048 7.39738 15.4812 7.85309 15.7041 8.38673C15.927 8.92038 15.9864 9.508 15.8748 10.0753C15.7631 10.6426 15.4855 11.1642 15.0769 11.5741C14.6684 11.984 14.1472 12.2638 13.5794 12.3781C13.0115 12.4924 12.4225 12.4362 11.8866 12.2165C11.3508 11.9968 10.8923 11.6234 10.569 11.1437C10.2457 10.6639 10.0721 10.0993 10.0703 9.52113C10.0703 8.7458 10.3779 8.002 10.9258 7.45234C11.4737 6.90269 12.2173 6.59189 12.9941 6.5879ZM12.9722 11.2663C13.9185 11.2926 14.7236 10.5158 14.7554 9.54599C14.7861 8.60252 14.0112 7.79842 13.0366 7.76187C12.0869 7.7263 11.2656 8.5187 11.2432 9.49141C11.2217 10.4349 12.0024 11.2365 12.9702 11.2638L12.9722 11.2663Z" fill="white"/>
</svg>
