<svg width="20" height="20" viewBox="0 0 20 20" fill="none" xmlns="http://www.w3.org/2000/svg">
<path d="M15.8333 9.16406H4.16667C3.24619 9.16406 2.5 9.91025 2.5 10.8307V16.6641C2.5 17.5845 3.24619 18.3307 4.16667 18.3307H15.8333C16.7538 18.3307 17.5 17.5845 17.5 16.6641V10.8307C17.5 9.91025 16.7538 9.16406 15.8333 9.16406Z" stroke="#0F2851" stroke-width="2" stroke-linecap="round" stroke-linejoin="round"/>
<path d="M5.83203 9.16406V5.83073C5.83203 4.72566 6.27102 3.66585 7.05242 2.88445C7.83382 2.10305 8.89363 1.66406 9.9987 1.66406C11.1038 1.66406 12.1636 2.10305 12.945 2.88445C13.7264 3.66585 14.1654 4.72566 14.1654 5.83073V9.16406" stroke="#0F2851" stroke-width="2" stroke-linecap="round" stroke-linejoin="round"/>
</svg>
