<svg width="110" height="110" viewBox="0 0 110 110" fill="none" xmlns="http://www.w3.org/2000/svg">
<circle cx="55" cy="55" r="55" fill="#4F69E4"/>
<path d="M25.66 62V48H28.9V59.36H35.92V62H25.66ZM44.2959 62.24C43.1893 62.24 42.1626 62.06 41.2159 61.7C40.2826 61.34 39.4693 60.8333 38.7759 60.18C38.0959 59.5267 37.5626 58.76 37.1759 57.88C36.8026 57 36.6159 56.04 36.6159 55C36.6159 53.96 36.8026 53 37.1759 52.12C37.5626 51.24 38.1026 50.4733 38.7959 49.82C39.4893 49.1667 40.3026 48.66 41.2359 48.3C42.1693 47.94 43.1826 47.76 44.2759 47.76C45.3826 47.76 46.3959 47.94 47.3159 48.3C48.2493 48.66 49.0559 49.1667 49.7359 49.82C50.4293 50.4733 50.9693 51.24 51.3559 52.12C51.7426 52.9867 51.9359 53.9467 51.9359 55C51.9359 56.04 51.7426 57.0067 51.3559 57.9C50.9693 58.78 50.4293 59.5467 49.7359 60.2C49.0559 60.84 48.2493 61.34 47.3159 61.7C46.3959 62.06 45.3893 62.24 44.2959 62.24ZM44.2759 59.48C44.9026 59.48 45.4759 59.3733 45.9959 59.16C46.5293 58.9467 46.9959 58.64 47.3959 58.24C47.7959 57.84 48.1026 57.3667 48.3159 56.82C48.5426 56.2733 48.6559 55.6667 48.6559 55C48.6559 54.3333 48.5426 53.7267 48.3159 53.18C48.1026 52.6333 47.7959 52.16 47.3959 51.76C47.0093 51.36 46.5493 51.0533 46.0159 50.84C45.4826 50.6267 44.9026 50.52 44.2759 50.52C43.6493 50.52 43.0693 50.6267 42.5359 50.84C42.0159 51.0533 41.5559 51.36 41.1559 51.76C40.7559 52.16 40.4426 52.6333 40.2159 53.18C40.0026 53.7267 39.8959 54.3333 39.8959 55C39.8959 55.6533 40.0026 56.26 40.2159 56.82C40.4426 57.3667 40.7493 57.84 41.1359 58.24C41.5359 58.64 42.0026 58.9467 42.5359 59.16C43.0693 59.3733 43.6493 59.48 44.2759 59.48ZM61.1309 62.24C60.0243 62.24 59.0043 62.0667 58.0709 61.72C57.1509 61.36 56.3443 60.8533 55.6509 60.2C54.9709 59.5467 54.4376 58.78 54.0509 57.9C53.6776 57.02 53.4909 56.0533 53.4909 55C53.4909 53.9467 53.6776 52.98 54.0509 52.1C54.4376 51.22 54.9776 50.4533 55.6709 49.8C56.3643 49.1467 57.1776 48.6467 58.1109 48.3C59.0443 47.94 60.0709 47.76 61.1909 47.76C62.4309 47.76 63.5443 47.9667 64.5309 48.38C65.5309 48.7933 66.3709 49.3933 67.0509 50.18L64.9709 52.1C64.4643 51.5667 63.9109 51.1733 63.3109 50.92C62.7109 50.6533 62.0576 50.52 61.3509 50.52C60.6709 50.52 60.0509 50.6267 59.4909 50.84C58.9309 51.0533 58.4443 51.36 58.0309 51.76C57.6309 52.16 57.3176 52.6333 57.0909 53.18C56.8776 53.7267 56.7709 54.3333 56.7709 55C56.7709 55.6533 56.8776 56.2533 57.0909 56.8C57.3176 57.3467 57.6309 57.8267 58.0309 58.24C58.4443 58.64 58.9243 58.9467 59.4709 59.16C60.0309 59.3733 60.6443 59.48 61.3109 59.48C61.9509 59.48 62.5709 59.38 63.1709 59.18C63.7843 58.9667 64.3776 58.6133 64.9509 58.12L66.7909 60.46C66.0309 61.0333 65.1443 61.4733 64.1309 61.78C63.1309 62.0867 62.1309 62.24 61.1309 62.24ZM63.8309 60.04V54.78H66.7909V60.46L63.8309 60.04ZM76.6006 62.24C75.494 62.24 74.4673 62.06 73.5206 61.7C72.5873 61.34 71.774 60.8333 71.0806 60.18C70.4006 59.5267 69.8673 58.76 69.4806 57.88C69.1073 57 68.9206 56.04 68.9206 55C68.9206 53.96 69.1073 53 69.4806 52.12C69.8673 51.24 70.4073 50.4733 71.1006 49.82C71.794 49.1667 72.6073 48.66 73.5406 48.3C74.474 47.94 75.4873 47.76 76.5806 47.76C77.6873 47.76 78.7006 47.94 79.6206 48.3C80.554 48.66 81.3606 49.1667 82.0406 49.82C82.734 50.4733 83.274 51.24 83.6606 52.12C84.0473 52.9867 84.2406 53.9467 84.2406 55C84.2406 56.04 84.0473 57.0067 83.6606 57.9C83.274 58.78 82.734 59.5467 82.0406 60.2C81.3606 60.84 80.554 61.34 79.6206 61.7C78.7006 62.06 77.694 62.24 76.6006 62.24ZM76.5806 59.48C77.2073 59.48 77.7806 59.3733 78.3006 59.16C78.834 58.9467 79.3006 58.64 79.7006 58.24C80.1006 57.84 80.4073 57.3667 80.6206 56.82C80.8473 56.2733 80.9606 55.6667 80.9606 55C80.9606 54.3333 80.8473 53.7267 80.6206 53.18C80.4073 52.6333 80.1006 52.16 79.7006 51.76C79.314 51.36 78.854 51.0533 78.3206 50.84C77.7873 50.6267 77.2073 50.52 76.5806 50.52C75.954 50.52 75.374 50.6267 74.8406 50.84C74.3206 51.0533 73.8606 51.36 73.4606 51.76C73.0606 52.16 72.7473 52.6333 72.5206 53.18C72.3073 53.7267 72.2006 54.3333 72.2006 55C72.2006 55.6533 72.3073 56.26 72.5206 56.82C72.7473 57.3667 73.054 57.84 73.4406 58.24C73.8406 58.64 74.3073 58.9467 74.8406 59.16C75.374 59.3733 75.954 59.48 76.5806 59.48Z" fill="white"/>
</svg>
