<svg width="24" height="24" viewBox="0 0 24 24" fill="none" xmlns="http://www.w3.org/2000/svg">
<g clip-path="url(#clip0_784_35)">
<path d="M11.1814 24C11.1814 23.4464 11.1864 22.8929 11.1754 22.3398C11.1727 22.202 11.1385 22.0667 11.0754 21.9442C10.3503 20.6011 9.6152 19.2644 8.89011 17.9212C8.82636 17.799 8.79211 17.6635 8.7901 17.5257C8.7811 16.6681 8.7841 15.811 8.7861 14.9534C8.7861 14.0788 9.25366 13.6192 10.1363 13.6172H10.7768V13.3327C10.7768 11.7505 10.7768 10.1681 10.7768 8.58557C10.7768 8.08551 10.9029 7.63846 11.3739 7.40243C11.6238 7.27184 11.9018 7.2041 12.1837 7.20506C12.4657 7.20602 12.7431 7.27565 12.9921 7.40793C13.4092 7.62195 13.5727 8.0165 13.5722 8.48006C13.5722 9.69621 13.5722 10.913 13.5722 12.1305V12.4256H13.8517C15.3094 12.4256 16.7671 12.4296 18.2248 12.4256C18.7588 12.4256 19.1974 12.5906 19.4324 13.0956C19.5133 13.2805 19.5543 13.4804 19.5529 13.6822C19.5619 15.5059 19.5594 17.3327 19.5529 19.1544C19.5493 19.2624 19.5251 19.3686 19.4814 19.4674C19.1424 20.2675 18.7933 21.0676 18.4578 21.8732C18.3994 22.0162 18.3685 22.1689 18.3668 22.3233C18.3628 22.8834 18.3763 23.4439 18.3828 24.004L11.1814 24ZM10.7728 14.4458C10.7451 14.4332 10.7158 14.4239 10.6858 14.4183C10.4833 14.4158 10.2803 14.4123 10.0778 14.4158C9.71622 14.4213 9.5872 14.5503 9.5862 14.9129C9.5837 15.724 9.5822 16.5346 9.5892 17.3457C9.59303 17.4528 9.62179 17.5576 9.67321 17.6517C10.3533 18.9129 11.0414 20.17 11.719 21.4322C11.7935 21.5707 11.8765 21.6122 12.028 21.6117C13.8449 21.6067 15.6618 21.6067 17.4787 21.6117C17.6377 21.6117 17.7112 21.5617 17.7717 21.4187C18.0628 20.7306 18.3718 20.049 18.6588 19.3599C18.7221 19.2111 18.756 19.0515 18.7588 18.8899C18.7658 17.1981 18.7633 15.5064 18.7628 13.8142C18.7628 13.7287 18.7873 13.6262 18.7498 13.5612C18.6813 13.4427 18.5853 13.2707 18.4818 13.2562C18.1883 13.2147 17.8847 13.2417 17.5597 13.2417V15.2019H16.7626V13.2392H15.5664V15.1989H14.7738V13.2392H13.5657V15.2019H12.7736V14.9149C12.7736 12.8253 12.7736 10.7357 12.7736 8.64608C12.7765 8.56037 12.7747 8.47456 12.7681 8.38905C12.7421 8.16652 12.6181 8.03901 12.375 8.04351C12.0985 8.05101 11.7595 7.91599 11.6065 8.29954C11.5879 8.35927 11.5786 8.42151 11.5789 8.48406C11.5739 8.55407 11.5789 8.62458 11.5789 8.69459V15.9955H10.7728V14.4458ZM17.5522 22.4218H11.995V23.1879H17.5522V22.4218Z" fill="#0B1224"/>
<path d="M9.1674 19.5994V20.3905H2V20.1405C2 15.3452 2.00117 10.5501 2.0035 5.75518C2.00422 5.61592 2.02979 5.47791 2.07901 5.34763C2.72509 3.65292 3.37917 1.96171 4.02425 0.266997C4.08476 0.108477 4.15677 0.0429688 4.33829 0.0429688C9.42926 0.0489695 14.5207 0.0489695 19.6127 0.0429688C19.7912 0.0429688 19.8677 0.100977 19.9292 0.262497C20.5743 1.95721 21.2294 3.64892 21.874 5.34313C21.9249 5.48098 21.9512 5.62673 21.9515 5.77369C21.9555 10.5533 21.9565 15.3329 21.9545 20.1125V20.3855H20.3728V19.6184H21.1394V6.03972H16.3858V5.25162H20.9524C20.9144 5.13311 20.8894 5.04459 20.8579 4.95908C20.5793 4.20899 20.2908 3.4589 20.0268 2.7028C19.9512 2.48777 19.8442 2.43227 19.6267 2.43377C18.2385 2.44427 16.8509 2.43927 15.4632 2.43927H15.1876V1.65117H19.6022C19.4972 1.38464 19.4092 1.15111 19.3097 0.919578C19.2937 0.883074 19.2282 0.859071 19.1811 0.847569C19.1271 0.840552 19.0724 0.839546 19.0181 0.844569C14.3239 0.844569 9.62995 0.842902 4.93637 0.839568C4.72984 0.839568 4.62583 0.894576 4.57082 1.0936C4.52081 1.27112 4.43731 1.43864 4.3578 1.63767H8.77035V2.43227H4.03625C3.68971 3.36488 3.34917 4.2825 2.99813 5.22662H7.5627V6.02672H2.8156V19.5994H9.1674Z" fill="#0B1224"/>
<path d="M14.6772 7.61966L14.0591 7.07609C14.6642 6.3455 14.8892 5.52589 14.6867 4.60478C14.5367 3.91519 14.1576 3.36462 13.5916 2.94557C12.4719 2.11697 10.9062 2.27449 9.91312 3.30612C8.979 4.27624 8.77348 6.04696 10.0901 7.32562L9.59008 7.89919C8.23991 6.75805 7.84536 4.46926 9.25154 2.85356C10.5517 1.36137 12.9645 1.24786 14.4137 2.60353C15.9779 4.06321 15.8724 6.37 14.6772 7.61966Z" fill="#0B1224"/>
<path d="M11.1744 6.53732L10.1368 5.50069L10.6868 4.96862C10.8209 5.13164 10.9689 5.31166 11.1279 5.50419L12.8421 3.75397L13.4017 4.31054L11.1744 6.53732Z" fill="#0B1224"/>
<path d="M17.564 18.0293C17.564 18.5794 17.564 19.1069 17.564 19.6355C17.5643 19.6894 17.5502 19.7425 17.523 19.789C17.2509 20.2041 16.9729 20.6166 16.6894 21.0452L16.0508 20.5676C16.2558 20.2606 16.4618 19.9675 16.6454 19.6675C16.715 19.5503 16.7547 19.4177 16.7609 19.2815C16.7754 18.8709 16.7664 18.4598 16.7664 18.0313L17.564 18.0293Z" fill="#0B1224"/>
</g>
<defs>
<clipPath id="clip0_784_35">
<rect width="24" height="24" fill="white"/>
</clipPath>
</defs>
</svg>
