<svg width="24" height="24" viewBox="0 0 24 24" fill="none" xmlns="http://www.w3.org/2000/svg">
<g clip-path="url(#clip0_784_25)">
<path d="M22.3686 12.0166C22.3686 13.8679 22.3648 15.7197 22.3736 17.5716C22.3736 17.8091 22.288 17.9397 22.0848 18.0491C18.8286 19.8037 15.5744 21.5626 12.3223 23.326C12.098 23.4479 11.9223 23.451 11.6973 23.3297C8.43985 21.561 5.1788 19.7985 1.91422 18.0422C1.71797 17.9366 1.63672 17.8104 1.63672 17.5822C1.64297 13.8556 1.64297 10.1289 1.63672 6.40223C1.63672 6.1841 1.71735 6.06036 1.90422 5.95973C5.1813 4.19431 8.4563 2.42473 11.7292 0.65098C11.933 0.53973 12.0942 0.54598 12.2917 0.65473C15.5559 2.42681 18.824 4.19265 22.0961 5.95223C22.2917 6.05786 22.3742 6.18723 22.373 6.41473C22.3655 8.28161 22.3686 10.1491 22.3686 12.0166ZM12.2792 22.711C12.3592 22.6747 12.3948 22.661 12.428 22.6435C15.5034 20.9818 18.5798 19.3212 21.6573 17.6616C21.8173 17.5754 21.8248 17.4654 21.8248 17.3191C21.8248 13.8816 21.8248 10.4441 21.8248 7.00661C21.8248 6.92598 21.8161 6.84598 21.8098 6.74473C21.7161 6.7916 21.6536 6.82098 21.5923 6.8541C18.5507 8.49702 15.509 10.1395 12.4673 11.7816C12.323 11.8597 12.2798 11.9479 12.2798 12.1079C12.2844 15.5612 12.2855 19.0143 12.283 22.4672L12.2792 22.711ZM11.7136 22.711C11.7198 22.6241 11.7267 22.5722 11.7267 22.5235C11.7267 19.0401 11.7282 15.5566 11.7311 12.0729C11.7311 11.9235 11.6723 11.8535 11.5505 11.7885C10.613 11.2885 9.68234 10.7816 8.74859 10.2785C8.68984 10.2472 8.62359 10.226 8.54297 10.1904V10.4779C8.54297 11.6962 8.54297 12.9145 8.54297 14.1329C8.54297 14.2979 8.53234 14.4554 8.34359 14.5079C8.16609 14.5597 8.07172 14.4385 7.98297 14.3129C7.64172 13.8272 7.29547 13.3454 6.96047 12.856C6.88109 12.7404 6.81047 12.7072 6.67547 12.7591C6.41359 12.8597 6.14484 12.9429 5.87859 13.031C5.48984 13.161 5.36359 13.0685 5.36359 12.6522C5.36359 11.3247 5.36047 9.99661 5.36359 8.66911C5.36359 8.50911 5.31922 8.41911 5.17297 8.34035C4.24297 7.8466 3.31859 7.34035 2.39172 6.84035C2.33234 6.80848 2.26672 6.7841 2.19234 6.74848C2.18734 6.83411 2.1811 6.89598 2.1811 6.95723C2.1811 10.4251 2.17964 13.8931 2.17672 17.361C2.17672 17.5185 2.23297 17.596 2.36422 17.6672C5.35172 19.2772 8.33797 20.8895 11.323 22.5041C11.4473 22.5697 11.5692 22.6341 11.7136 22.711ZM15.1511 2.83598C15.0748 2.78785 15.0261 2.75223 14.9692 2.72285C14.0498 2.22285 13.128 1.73285 12.213 1.22848C12.1529 1.18901 12.0826 1.16798 12.0108 1.16798C11.9389 1.16798 11.8686 1.18901 11.8086 1.22848C9.42318 2.52348 7.03589 3.81515 4.64672 5.10348L2.49672 6.26535C2.59734 6.3241 2.66797 6.36848 2.74109 6.40785C3.63984 6.8941 4.54172 7.3741 5.43484 7.86973C5.59547 7.95911 5.71047 7.9441 5.86047 7.86285C7.79297 6.81285 9.72755 5.76619 11.6642 4.72285L15.1511 2.83598ZM21.5123 6.27348C21.4217 6.21848 21.3642 6.17973 21.3042 6.14848C20.3911 5.65535 19.4755 5.1666 18.5667 4.6666C18.5096 4.62882 18.4427 4.60867 18.3742 4.60867C18.3058 4.60867 18.2388 4.62882 18.1817 4.6666C15.1917 6.28786 12.1998 7.90598 9.20609 9.52098C9.09859 9.5791 8.99234 9.63973 8.86297 9.71223C8.98797 9.78223 9.08109 9.83723 9.17547 9.88786C10.0542 10.3622 10.9348 10.8329 11.8092 11.3154C11.9598 11.3979 12.0698 11.3885 12.2155 11.3091C15.0821 9.75452 17.9507 8.20327 20.8211 6.65536C21.0417 6.53223 21.2636 6.40848 21.5092 6.27348H21.5123ZM6.21422 8.28473C6.90172 8.65973 7.55234 9.01223 8.20797 9.35473C8.26297 9.38411 8.37234 9.34473 8.44109 9.30786C11.4773 7.67077 14.5123 6.03181 17.5461 4.39098C17.6186 4.3516 17.688 4.30473 17.7823 4.24723C17.1448 3.90223 16.5323 3.57723 15.9273 3.23911C15.8706 3.20169 15.8041 3.18174 15.7361 3.18174C15.6681 3.18174 15.6016 3.20169 15.5448 3.23911C13.8869 4.14119 12.2263 5.04077 10.563 5.93785C9.12922 6.7116 7.69422 7.48598 6.21422 8.28473ZM5.91797 8.75035V12.4379C6.20609 12.3416 6.48047 12.2616 6.74734 12.1579C6.97734 12.0679 7.12797 12.1279 7.26047 12.3304C7.45672 12.631 7.67297 12.9179 7.87672 13.2135C7.90006 13.2608 7.91608 13.3114 7.92422 13.3635L8.00484 13.291C8.00484 12.1985 8.00485 11.1035 7.99797 10.0129C7.98978 9.967 7.97173 9.92347 7.94508 9.88527C7.91843 9.84708 7.8838 9.81512 7.84359 9.7916C7.40984 9.54473 6.96859 9.31223 6.53109 9.07536C6.33234 8.97098 6.13547 8.8666 5.91797 8.75035Z" fill="#0B1224"/>
<path d="M2.96694 15.8516C3.07569 15.8959 3.15007 15.9178 3.21694 15.9541C4.33569 16.5566 5.45382 17.1607 6.57132 17.7666C6.82132 17.9028 6.89132 18.0359 6.80382 18.1978C6.71632 18.3597 6.56132 18.3809 6.31695 18.2491C5.8432 17.9941 5.36986 17.7384 4.89694 17.4822C4.25944 17.1376 3.62153 16.793 2.98319 16.4484C2.92069 16.4153 2.84069 16.3859 2.81257 16.3322C2.77069 16.2503 2.72944 16.1353 2.75694 16.0591C2.78444 15.9828 2.89569 15.9172 2.96694 15.8516Z" fill="#0B1224"/>
<path d="M2.95968 16.7793C3.0703 16.8224 3.1378 16.8418 3.19905 16.8743C3.58405 17.0793 3.96843 17.2862 4.35218 17.4949C4.55031 17.603 4.6178 17.7668 4.52218 17.9118C4.40718 18.0855 4.25655 18.0668 4.0928 17.9743C3.69655 17.7568 3.29093 17.5549 2.9053 17.3205C2.8178 17.2674 2.75031 17.1087 2.75406 17.0012C2.75593 16.9249 2.88968 16.8499 2.95968 16.7793Z" fill="#0B1224"/>
</g>
<defs>
<clipPath id="clip0_784_25">
<rect width="24" height="24" fill="white"/>
</clipPath>
</defs>
</svg>
