<svg width="24" height="24" viewBox="0 0 24 24" fill="none" xmlns="http://www.w3.org/2000/svg">
<path d="M21.0004 16.6391C19.881 17.2253 18.7617 17.8117 17.6423 18.3983C16.0457 19.2333 14.4484 20.0673 12.8503 20.9005C12.8034 20.9244 12.7565 20.9473 12.6881 20.9783C12.6839 20.9042 12.6773 20.8498 12.6778 20.795C12.6815 18.0297 12.6848 15.2641 12.6876 12.4981C12.6876 12.3687 12.7256 12.3022 12.8432 12.2445C15.5042 10.9348 18.164 9.62234 20.8228 8.30703C20.8799 8.27891 20.9414 8.26016 21.0004 8.23438V16.6391Z" fill="#029046"/>
<path d="M3 8.23828C3.04979 8.25198 3.09864 8.26889 3.14625 8.28891C4.17469 8.79516 5.20172 9.30516 6.23297 9.80672C6.34781 9.8625 6.37735 9.92859 6.37641 10.0477C6.37235 10.9614 6.37235 11.8753 6.37641 12.7894C6.37641 13.088 6.51703 13.3092 6.78938 13.4283C7.04906 13.5422 7.29562 13.4925 7.50562 13.3008C7.66734 13.1536 7.72453 12.9633 7.72313 12.7472C7.71984 12.0909 7.72313 11.4347 7.72313 10.7784V10.5609C7.8075 10.5994 7.86984 10.6252 7.93078 10.6547C9.00422 11.1844 10.0781 11.7188 11.1562 12.2409C11.2908 12.3061 11.3391 12.3764 11.3386 12.5288C11.332 15.3525 11.3295 18.1762 11.3311 21H11.2969C11.2177 20.9531 11.1408 20.9011 11.0592 20.8594C8.56141 19.555 6.06406 18.2528 3.56719 16.9528C3.31453 16.8216 3.10406 16.6669 3 16.3945V8.23828Z" fill="#029046"/>
<path d="M12.1414 3L15.0917 4.44562C14.5733 4.71187 14.0914 4.96125 13.6086 5.20734C11.4323 6.32203 9.25578 7.43703 7.07891 8.55234C7.03331 8.581 6.98078 8.5967 6.92694 8.59778C6.8731 8.59885 6.81998 8.58525 6.77328 8.55844C5.79969 8.07281 4.82234 7.59469 3.8464 7.11422C3.79953 7.09125 3.75547 7.06734 3.6875 7.02844C3.77234 6.98578 3.83703 6.9525 3.90219 6.92016L11.5658 3.13594C11.653 3.09281 11.7387 3.04547 11.825 3H12.1414Z" fill="#029046"/>
<path d="M8.44727 9.3848L12.007 7.56511C13.496 6.80386 14.986 6.04355 16.477 5.28417C16.544 5.24996 16.6518 5.22839 16.7113 5.25839C17.8832 5.82839 19.0551 6.4073 20.2218 6.9848C20.2429 6.99511 20.2616 7.00964 20.3015 7.03449C20.219 7.07714 20.1487 7.11418 20.0779 7.14933C17.4426 8.45527 14.8076 9.76214 12.1729 11.07C12.1212 11.0996 12.0626 11.1149 12.0031 11.1144C11.9435 11.1139 11.8852 11.0976 11.834 11.0671C10.7821 10.5417 9.72461 10.0237 8.6732 9.50292C8.6057 9.46917 8.53961 9.43308 8.44727 9.3848Z" fill="#029046"/>
</svg>
