<svg width="26" height="26" viewBox="0 0 26 26" fill="none" xmlns="http://www.w3.org/2000/svg">
<path d="M0 23.9949C0 18.4666 0 12.9528 0 7.42458C8.4579 7.42458 16.9082 7.42458 25.3737 7.42458C25.3737 12.9528 25.3737 18.4666 25.3737 23.9949C16.9234 23.9949 8.47301 23.9949 0 23.9949ZM14.1948 16.847C13.4767 16.3863 12.7738 15.9329 12.0633 15.4866C11.897 15.3858 11.829 15.2994 11.8743 15.0835C12.0179 14.4428 11.708 13.8094 11.1336 13.4927C10.5591 13.1759 9.81086 13.2407 9.312 13.651C8.79803 14.0685 8.62418 14.7164 8.88117 15.3426C8.94919 15.5154 8.88117 15.5801 8.76779 15.6737C7.45262 16.7679 6.14501 17.8692 4.8374 18.9705C4.70891 19.0785 4.60309 19.1001 4.43681 19.0353C3.33327 18.5962 2.10125 19.4528 2.25997 20.5541C2.35068 21.1804 2.69836 21.6266 3.32571 21.8282C3.91527 22.0225 4.4746 21.9146 4.92055 21.4899C5.39673 21.0508 5.54034 20.5109 5.31358 19.9135C5.26068 19.7767 5.29091 19.7047 5.39673 19.6183C6.74213 18.4954 8.07997 17.3725 9.41782 16.2496C9.52364 16.156 9.61434 16.12 9.76551 16.1848C10.219 16.372 10.6725 16.336 11.0958 16.0984C11.2318 16.0264 11.3225 16.0264 11.451 16.1128C12.1767 16.5879 12.9023 17.0486 13.6354 17.5093C13.7715 17.5956 13.8093 17.6748 13.8168 17.8332C13.8471 18.4594 14.157 18.9345 14.7692 19.1865C15.3663 19.4312 15.9408 19.352 16.4321 18.9417C16.9309 18.5242 17.0972 17.9915 16.9007 17.3797C16.8402 17.1925 16.8931 17.1062 17.0141 16.991C18.231 15.8465 19.4479 14.702 20.6497 13.5431C20.8311 13.3703 20.9747 13.2983 21.2543 13.3631C22.1311 13.5718 22.9852 13.0176 23.1515 12.1754C23.3178 11.326 22.6829 10.527 21.7532 10.4046C20.9066 10.2967 20.0752 10.9445 20.0374 11.7939C20.0223 12.1034 20.1357 12.4201 20.1886 12.7297C20.2188 12.7369 20.2415 12.7441 20.2717 12.7584C20.1962 12.816 20.113 12.8592 20.0525 12.924C18.881 14.0325 17.7019 15.1411 16.5379 16.2568C16.3489 16.4367 16.1902 16.5663 15.9256 16.3935C15.8501 16.3432 15.7442 16.3432 15.6535 16.3288C15.0715 16.2568 14.5954 16.4511 14.1948 16.847Z" fill="#EB1D23"/>
<path d="M3.54486 6.51041C4.03616 6.26567 4.5199 6.01373 5.0112 5.769C7.44502 4.5453 9.88639 3.3288 12.3202 2.10511C12.547 1.98994 12.7435 1.95394 12.9854 2.07631C15.9029 3.54475 18.8205 5.00599 21.7456 6.46722C21.7683 6.48162 21.7909 6.49601 21.8136 6.568C21.6927 6.568 21.5717 6.5536 21.4508 6.568C20.4607 6.67597 19.5914 6.41683 18.7147 5.94895C16.8099 4.9268 14.8523 3.99104 12.9173 3.01928C12.751 2.9329 12.6226 2.9329 12.4487 3.01928C10.2038 4.1566 7.94387 5.29391 5.67634 6.41683C5.49494 6.51041 5.26819 6.5536 5.06411 6.5608C4.56525 6.58239 4.06639 6.568 3.56754 6.568C3.55998 6.5536 3.55242 6.53201 3.54486 6.51041Z" fill="#EB1D23"/>
<path d="M12.6907 5.67542C12.1691 5.67542 11.761 5.28672 11.761 4.79004C11.761 4.30776 12.1616 3.91906 12.668 3.91186C13.1895 3.90466 13.6052 4.29336 13.6128 4.78284C13.6204 5.28671 13.2122 5.67542 12.6907 5.67542Z" fill="#EB1D23"/>
</svg>
