<svg width="26" height="26" viewBox="0 0 26 26" fill="none" xmlns="http://www.w3.org/2000/svg">
<path d="M25.0666 7.6451C25.0666 7.76436 25.0666 7.86125 25.0666 7.9507C25.0666 11.8266 25.0666 15.7025 25.0738 19.5785C25.0738 19.7872 25.0237 19.9064 24.8303 20.0033C21.1272 21.9338 17.4241 23.8793 13.7209 25.8172C13.6135 25.8768 13.4989 25.929 13.3557 25.9961C13.3557 25.8694 13.3557 25.7799 13.3557 25.6905C13.3557 21.8071 13.3557 17.9237 13.3557 14.0404C13.3557 13.854 13.3915 13.7422 13.5705 13.6528C17.3238 11.6925 21.077 9.73213 24.8231 7.76436C24.8947 7.72709 24.9664 7.69727 25.0666 7.6451Z" fill="#EB1D23"/>
<path d="M12.7038 25.9887C12.4675 25.8694 12.2526 25.7576 12.0377 25.6458C8.43487 23.76 4.82488 21.8668 1.22204 19.981C1.08595 19.9064 1 19.8393 1 19.6605C1.00716 15.7175 1.00716 11.7819 1.00716 7.83889C1.00716 7.78672 1.01433 7.73454 1.02149 7.6451C1.12177 7.68982 1.20056 7.72709 1.27934 7.76436C2.54714 8.42773 3.81494 9.09857 5.08273 9.75449C5.24747 9.83648 5.31194 9.93338 5.31194 10.1346C5.29761 11.4539 5.29761 12.7807 5.29761 14.1C5.29761 14.2044 5.29761 14.3013 5.29761 14.4503C5.65575 14.4503 6.00672 14.4801 6.34337 14.4429C6.82327 14.3907 7.16708 14.5472 7.48223 14.9274C7.85469 15.3746 8.28445 15.7771 8.72138 16.2243C8.72138 14.7038 8.72138 13.2205 8.72138 11.7074C8.80017 11.7297 8.85031 11.7372 8.88612 11.7595C10.0966 12.3931 11.3143 13.0267 12.5176 13.6677C12.6036 13.7124 12.6967 13.854 12.6967 13.9509C12.7038 17.9088 12.7038 21.8668 12.7038 25.8247C12.711 25.8694 12.7038 25.9141 12.7038 25.9887Z" fill="#EB1D23"/>
<path d="M24.7085 7.07861C23.2688 7.83143 21.8649 8.56935 20.4611 9.30727C18.0759 10.5595 15.6907 11.8043 13.3055 13.0639C13.105 13.1683 12.9617 13.1608 12.7683 13.0565C11.6295 12.4453 10.4906 11.8564 9.34457 11.2527C9.27294 11.2154 9.20848 11.1781 9.09387 11.1111C9.53796 10.8651 9.94623 10.634 10.3617 10.403C13.6422 8.5768 16.9227 6.7581 20.196 4.92449C20.3536 4.83505 20.4754 4.83505 20.633 4.92449C21.9151 5.60278 23.2044 6.27361 24.4865 6.94444C24.551 6.97426 24.6083 7.01153 24.7085 7.07861Z" fill="#EB1D23"/>
<path d="M1.3653 7.07116C1.74492 6.86991 2.08873 6.68356 2.4397 6.50467C5.89211 4.69343 9.35169 2.88963 12.8041 1.07093C12.9688 0.981482 13.0978 0.974028 13.2697 1.06347C14.4873 1.71194 15.705 2.34551 16.9585 3.00144C16.8797 3.05361 16.8295 3.09833 16.7722 3.12815C13.1336 5.15555 9.49495 7.18296 5.8563 9.20291C5.76319 9.25509 5.61993 9.29236 5.54114 9.24764C4.15158 8.53953 2.77635 7.80907 1.3653 7.07116Z" fill="#EB1D23"/>
</svg>
