<svg width="26" height="26" viewBox="0 0 26 26" fill="none" xmlns="http://www.w3.org/2000/svg">
<path d="M3.88423 0C9.17764 0 14.479 0 19.7725 0C19.98 0.0714068 20.1956 0.126945 20.3872 0.222154C21.2495 0.658529 21.6407 1.38053 21.6407 2.32469C21.6407 5.79982 21.6407 9.28288 21.6407 12.758C21.6407 12.8294 21.6327 12.9008 21.6248 13.004C21.3134 13.004 21.018 13.004 20.7226 13.004C19.1976 13.0119 17.7685 13.3531 16.491 14.1861C14.2794 15.6301 13.0739 17.6771 12.9461 20.3033C12.8902 21.3824 12.9301 22.4693 12.9301 23.5484C12.9301 23.6356 12.9301 23.7229 12.9301 23.8261C12.8263 23.834 12.7545 23.8419 12.6906 23.8419C9.90419 23.8419 7.11776 23.8419 4.33932 23.8419C4.13174 23.8419 3.90818 23.8261 3.70858 23.7705C2.64671 23.4928 2 22.6756 2 21.5728C2 15.1382 2 8.69576 2 2.26121C2 1.7217 2.1517 1.22978 2.50299 0.801343C2.86228 0.357034 3.3493 0.134879 3.88423 0ZM5.29741 9.73512C9.65669 9.73512 14 9.73512 18.3433 9.73512C18.3433 9.02105 18.3433 8.32285 18.3433 7.61672C13.992 7.61672 9.6487 7.61672 5.29741 7.61672C5.29741 8.33079 5.29741 9.02105 5.29741 9.73512ZM5.30539 5.38724C8.93812 5.38724 12.5469 5.38724 16.1637 5.38724C16.1637 4.66524 16.1637 3.96704 16.1637 3.26091C12.5389 3.26091 8.93014 3.26091 5.30539 3.26091C5.30539 3.96704 5.30539 4.66524 5.30539 5.38724ZM5.29741 14.0592C7.47705 14.0592 9.63273 14.0592 11.7964 14.0592C11.7964 13.3451 11.7964 12.6469 11.7964 11.9487C9.62475 11.9487 7.46906 11.9487 5.29741 11.9487C5.29741 12.6549 5.29741 13.3451 5.29741 14.0592ZM9.61677 16.2569C8.17166 16.2569 6.74251 16.2569 5.29741 16.2569C5.29741 16.971 5.29741 17.6771 5.29741 18.3833C6.7505 18.3833 8.17964 18.3833 9.61677 18.3833C9.61677 17.6692 9.61677 16.9631 9.61677 16.2569Z" fill="#EB1D23"/>
<path d="M20.5469 26C17.5369 26 15.0858 23.5722 15.0778 20.589C15.0778 17.6057 17.5449 15.162 20.5389 15.17C23.5409 15.1779 25.976 17.5899 25.992 20.5731C26.0159 23.5404 23.5569 25.9921 20.5469 26ZM19.7405 17.3518C19.7405 18.7006 19.7405 20.0336 19.7405 21.3665C21.1058 21.3665 22.4551 21.3665 23.8044 21.3665C23.8044 20.8349 23.8044 20.3192 23.8044 19.7717C22.99 19.7717 22.1916 19.7717 21.3613 19.7717C21.3613 18.9466 21.3613 18.1532 21.3613 17.3518C20.8024 17.3518 20.2754 17.3518 19.7405 17.3518Z" fill="#EB1D23"/>
</svg>
