<svg width="26" height="26" viewBox="0 0 26 26" fill="none" xmlns="http://www.w3.org/2000/svg">
<g clip-path="url(#clip0_5_137)">
<path d="M12.1415 0C14.0719 0 16.0023 0 17.9328 0C17.9277 0.106703 17.9125 0.218487 17.9125 0.325191C17.9125 2.51006 17.9125 4.69494 17.9125 6.87981C17.9125 6.98651 17.9023 7.09322 17.8972 7.21516C15.8499 7.21516 13.8281 7.21516 11.7808 7.21516C11.7808 10.7872 11.7808 14.3389 11.7808 17.9109C11.6436 17.9109 11.5369 17.9109 11.4252 17.9109C7.72685 17.9109 4.02345 17.9109 0.325127 17.9109C0.218445 17.9109 0.106682 17.921 0 17.9312C0 11.9558 0 5.98046 0 0C1.9152 0 3.8304 0 5.74052 0C5.7456 0.101622 5.76084 0.203244 5.76084 0.299785C5.76084 1.80887 5.76084 3.31288 5.76084 4.82197C5.76084 4.91851 5.76084 5.01505 5.76084 5.11159C7.90973 5.11159 10.0129 5.11159 12.1415 5.11159C12.1415 3.39926 12.1415 1.70217 12.1415 0Z" fill="#029046"/>
<path d="M10.6174 0C10.6174 1.18898 10.6174 2.38304 10.6174 3.59234C9.50485 3.59234 8.40755 3.59234 7.26453 3.59234C7.26453 2.39828 7.26453 1.19914 7.26453 0C8.38215 0 9.49977 0 10.6174 0Z" fill="#029046"/>
<path d="M26 8.74966C26 14.5065 26 20.2482 26 26C21.7784 26 17.5619 26 13.3302 26C13.3302 20.2584 13.3302 14.5167 13.3302 8.74966C17.5416 8.74966 21.7581 8.74966 26 8.74966ZM15.8804 15.5431C18.4052 15.5431 20.9097 15.5431 23.4193 15.5431C23.4193 15.0401 23.4193 14.5472 23.4193 14.0594C20.8945 14.0594 18.3951 14.0594 15.8804 14.0594C15.8804 14.5574 15.8804 15.035 15.8804 15.5431ZM15.8804 18.4393C18.4052 18.4393 20.9097 18.4393 23.4193 18.4393C23.4193 17.9363 23.4193 17.4434 23.4193 16.9556C20.8945 16.9556 18.3951 16.9556 15.8804 16.9556C15.8804 17.4536 15.8804 17.9312 15.8804 18.4393ZM21.4228 19.8468C20.8183 20.4159 20.2341 20.9697 19.6448 21.5286C19.3044 21.2288 18.9742 20.9392 18.6338 20.6344C18.2884 21.0205 17.9633 21.3914 17.628 21.7624C18.3239 22.3823 18.9996 22.9818 19.6803 23.5865C20.6151 22.7024 21.5346 21.8284 22.4693 20.9443C22.1137 20.5734 21.7784 20.2228 21.4228 19.8468ZM19.6448 12.6469C19.6448 12.1388 19.6448 11.651 19.6448 11.1632C18.3849 11.1632 17.1403 11.1632 15.8855 11.1632C15.8855 11.6713 15.8855 12.154 15.8855 12.6469C17.1454 12.6469 18.3849 12.6469 19.6448 12.6469Z" fill="#029046"/>
</g>
<defs>
<clipPath id="clip0_5_137">
<rect width="26" height="26" fill="white"/>
</clipPath>
</defs>
</svg>
