<svg width="26" height="26" viewBox="0 0 26 26" fill="none" xmlns="http://www.w3.org/2000/svg">
<path d="M25 18.8355C24.9154 19.233 24.8698 19.637 24.7526 20.0214C23.8932 22.7779 22.0378 24.4591 19.1927 24.9153C15.612 25.4887 12.2005 22.9864 11.5755 19.4285C10.931 15.7727 13.2747 12.306 16.888 11.5631C20.625 10.7942 24.2839 13.316 24.9154 17.0891C24.9414 17.2454 24.9805 17.4018 25.0065 17.5582C25 17.9883 25 18.4119 25 18.8355ZM17.1875 16.9066C17.1875 17.3041 17.194 17.7016 17.1875 18.0991C17.181 18.464 17.3047 18.7638 17.5651 19.0179C18.0469 19.4871 18.5221 19.9693 18.9974 20.4515C19.043 20.4971 19.0885 20.5428 19.1406 20.5819C19.5573 20.9207 20.1628 20.8881 20.5339 20.5102C20.9049 20.1322 20.9375 19.5197 20.5794 19.1157C20.293 18.7964 19.9935 18.4836 19.668 18.1968C19.362 17.9297 19.2318 17.6364 19.2578 17.2259C19.2969 16.6916 19.2773 16.1507 19.2643 15.6163C19.2448 14.9777 18.7956 14.5607 18.1836 14.5802C17.6237 14.5933 17.194 15.0559 17.1875 15.662C17.181 16.0725 17.1875 16.4895 17.1875 16.9066Z" fill="white"/>
<path d="M22.9036 11.2829C19.7786 9.43226 16.6341 9.2889 13.6068 11.3155C10.6315 13.3095 9.55078 16.2289 10.0195 19.7673C9.95443 19.7738 9.8763 19.7803 9.79167 19.7803C7.51302 19.7803 5.23438 19.7869 2.95573 19.7803C1.43229 19.7738 0.299479 18.8289 0.0260417 17.3367C0 17.1933 0 17.0434 0 16.9001C0 12.5601 0 8.2202 0 3.87374C0 2.29677 1.26302 1.01303 2.84505 1.00652C4.64844 0.993484 6.45833 1.00652 8.26172 1C8.54167 1 8.76302 1.10426 8.95182 1.29976C9.48568 1.84062 10.026 2.36845 10.5534 2.90931C10.6901 3.05267 10.8333 3.09829 11.0221 3.09829C14.0104 3.09177 16.9922 3.09177 19.9805 3.09177C21.6146 3.09177 22.8646 4.26473 22.9036 5.90035C22.9427 7.65979 22.9167 9.41922 22.9167 11.1787C22.9167 11.2178 22.9102 11.2438 22.9036 11.2829Z" fill="white"/>
</svg>
