<svg width="26" height="26" viewBox="0 0 26 26" fill="none" xmlns="http://www.w3.org/2000/svg">
<path d="M23 16.319V17.2175C22.977 17.3573 22.957 17.4976 22.9305 17.6366C22.4922 19.9269 21.168 21.4754 18.923 22.0785C16.6422 22.6918 14.707 21.9863 13.1844 20.1781C13.1492 20.1297 13.1023 20.0909 13.0482 20.0654C12.9941 20.0398 12.9344 20.0283 12.8746 20.032C11.9832 20.0378 11.0914 20.0351 10.2 20.0347C8.30677 20.0347 6.41328 20.0347 4.51953 20.0347C3.76602 20.0347 3.22109 19.5999 3.03516 18.8714C3.02533 18.8402 3.01359 18.8097 3 18.78V4.99067C3.00898 4.9814 3.01638 4.9707 3.02188 4.95902C3.25625 4.12424 3.7582 3.74064 4.62344 3.74064C8.97656 3.74064 13.3301 3.7508 17.6832 3.73244C18.6117 3.72853 19.3176 4.41097 19.3035 5.35669C19.2746 7.36688 19.2965 9.37786 19.2914 11.3888C19.2914 11.5318 19.3258 11.6002 19.4672 11.6572C21.1887 12.3545 22.3117 13.5963 22.8137 15.387C22.898 15.6913 22.9387 16.0065 23 16.319ZM13.7984 4.95942V5.2059C13.7984 6.48197 13.7984 7.75804 13.7984 9.0341C13.7984 9.6224 13.4078 9.87904 12.8609 9.65912C12.3367 9.44778 11.8133 9.2345 11.2852 9.0341C11.1962 9.00431 11.0998 9.00555 11.0117 9.03762C10.4832 9.2388 9.95 9.4306 9.43711 9.66693C8.92422 9.90326 8.48008 9.54974 8.49102 9.03606C8.51758 7.75439 8.49961 6.47116 8.49961 5.18872V4.94731H4.62734C4.26758 4.94731 4.20508 5.00942 4.20469 5.3645V18.4116C4.20469 18.7765 4.2625 18.8355 4.61992 18.8355H12.3816C11.7109 16.896 11.8969 15.0877 13.1332 13.4674C14.3695 11.847 16.0527 11.1732 18.073 11.3056C18.0812 11.286 18.0868 11.2654 18.0898 11.2443C18.0898 9.24557 18.0898 7.24683 18.0898 5.24809C18.0898 5.03481 17.9914 4.94652 17.7691 4.94613C16.4803 4.94405 15.1913 4.94405 13.902 4.94613C13.8672 4.94873 13.8327 4.95316 13.7984 4.95942ZM21.7945 16.7835C21.794 15.6445 21.3411 14.5525 20.5354 13.7474C19.7298 12.9424 18.6374 12.4904 17.4984 12.4908C15.132 12.4908 13.2016 14.4244 13.2016 16.7897C13.2016 19.155 15.1391 21.0847 17.5043 21.0847C18.6435 21.083 19.7354 20.6289 20.5399 19.8223C21.3444 19.0157 21.7957 17.9227 21.7945 16.7835ZM12.5871 8.24932V4.95981H9.71172V8.25323C10.0813 8.10713 10.4348 7.97979 10.7754 7.82705C11.0332 7.70986 11.268 7.71455 11.5242 7.82705C11.8672 7.97822 12.2188 8.10518 12.5871 8.24932Z" fill="#029046"/>
<path d="M18.0648 16.2289H19.1977C19.3734 16.2289 19.5492 16.2238 19.7246 16.234C19.8754 16.2419 20.0177 16.3068 20.1224 16.4156C20.2272 16.5244 20.2868 16.6689 20.2891 16.8199C20.2934 17.1293 20.0512 17.4117 19.7367 17.4168C18.9628 17.4283 18.1885 17.4283 17.4141 17.4168C17.0937 17.4117 16.8672 17.1516 16.8637 16.8227C16.8592 16.087 16.8592 15.3516 16.8637 14.6164C16.8637 14.2672 17.109 14.0129 17.4387 14.0023C17.7777 13.9914 18.0473 14.2343 18.059 14.5922C18.073 15.0148 18.0633 15.4383 18.0641 15.8609L18.0648 16.2289Z" fill="#029046"/>
</svg>
