<svg width="24" height="24" viewBox="0 0 24 24" fill="none" xmlns="http://www.w3.org/2000/svg">
<path d="M14.1443 21.3746C14.1443 21.0858 14.1443 20.8215 14.1443 20.5571C14.1481 20.269 14.2787 20.1108 14.5081 20.1065C14.7375 20.1021 14.8887 20.2677 14.8925 20.5646C14.8968 20.9165 14.8925 21.2677 14.8925 21.6196C14.8925 22.0227 14.7775 22.1383 14.3787 22.139H7.11246C6.70433 22.139 6.59246 22.0308 6.59246 21.6308C6.59246 19.9429 6.59246 18.2554 6.59246 16.5683C6.59246 16.1646 6.70933 16.0146 7.10621 16.059C7.77621 16.134 8.30246 15.9308 8.78121 15.4558C9.19496 15.0452 9.67183 14.6958 10.1343 14.3365C10.3062 14.2027 10.3937 14.0646 10.3637 13.8465C10.3547 13.7411 10.3536 13.6351 10.3606 13.5296C10.0075 13.6158 9.66808 13.7571 9.32308 13.7727C8.28933 13.8196 7.46496 13.0046 7.45746 11.9677C7.44996 10.9596 7.45746 9.95208 7.45746 8.94395V8.64333C7.36433 8.7277 7.30183 8.77958 7.24496 8.83645C6.65954 9.4227 6.07475 10.0092 5.49058 10.5958C5.3224 10.7701 5.12121 10.9091 4.89875 11.0048C4.67628 11.1005 4.437 11.1509 4.19483 11.1532C3.95267 11.1554 3.71249 11.1094 3.48828 11.0179C3.26408 10.9263 3.06034 10.7911 2.88896 10.62C2.71757 10.4489 2.58197 10.2454 2.49005 10.0213C2.39813 9.79729 2.35173 9.55718 2.35357 9.31502C2.35541 9.07285 2.40544 8.83348 2.50075 8.61085C2.59606 8.38822 2.73474 8.1868 2.90871 8.01833C3.12454 7.80333 3.34225 7.5902 3.56183 7.37895C3.76496 7.1827 3.97496 7.16395 4.13933 7.3227C4.30371 7.48145 4.29496 7.7027 4.08433 7.91708C3.90371 8.10145 3.71496 8.2777 3.53746 8.46395C3.12246 8.90145 3.11246 9.55395 3.50996 9.96395C3.90746 10.374 4.59933 10.4127 5.01808 10.0102C5.82371 9.23645 6.60371 8.43583 7.39308 7.6427C7.43429 7.5981 7.45822 7.54025 7.46058 7.47958C7.46371 6.53458 7.46058 5.58895 7.46058 4.64333C7.46058 4.63208 7.44496 4.62083 7.41246 4.57583C7.25996 4.73583 7.11433 4.89458 6.96246 5.04708C6.47121 5.53958 5.97996 6.03208 5.48371 6.51895C5.30121 6.6977 5.07558 6.6952 4.92433 6.5327C4.77308 6.3702 4.79558 6.1652 4.95996 5.98833C5.00246 5.94208 5.04621 5.89708 5.09246 5.8552C5.19183 5.76708 5.29308 5.68083 5.39308 5.59395L5.36621 5.52458C5.28683 5.52458 5.20746 5.52458 5.12808 5.52458C4.74621 5.51395 4.35808 5.54145 3.98308 5.4827C3.02433 5.33395 2.40433 4.4952 2.48308 3.50708C2.55496 2.6102 3.33746 1.87708 4.26433 1.87333C6.42933 1.86395 8.59371 1.86958 10.7587 1.86958C11.3606 1.86958 11.9625 1.86958 12.5637 1.86958C12.8425 1.86958 13.0118 2.00895 13.0187 2.23333C13.0256 2.4577 12.8493 2.6177 12.5612 2.61833C11.8187 2.61833 11.0762 2.61833 10.3337 2.61833C9.12683 2.62208 8.24933 3.47145 8.24496 4.6727C8.23496 7.08708 8.23996 9.50145 8.24496 11.9158C8.24496 12.4977 8.60746 12.9402 9.12621 13.0233C9.67058 13.1096 10.1793 12.8096 10.335 12.2902C10.3763 12.1318 10.3953 11.9683 10.3912 11.8046C10.3956 10.4921 10.3912 9.17958 10.3956 7.86708C10.4018 6.81208 11.1606 6.00333 12.1568 5.99958C12.9768 5.99645 13.5468 6.40895 13.8875 7.1402C14.0393 7.46514 14.0873 7.82898 14.0249 8.18217C13.9625 8.53536 13.7927 8.86072 13.5387 9.11395C12.8581 9.81458 12.16 10.4977 11.4762 11.1921C11.3341 11.3237 11.2324 11.493 11.1829 11.6802C11.1334 11.8675 11.1383 12.065 11.1968 12.2496C11.315 12.6615 11.5981 12.914 12.0131 13.0027C12.4131 13.0877 12.7493 12.9521 13.0331 12.6652C13.9231 11.7652 14.8175 10.8696 15.7043 9.96645C15.7713 9.891 15.8544 9.83155 15.9474 9.7925C16.0404 9.75345 16.1411 9.73579 16.2418 9.74083C16.6868 9.75333 17.1325 9.74583 17.5781 9.74395C17.8369 9.74869 18.0941 9.70134 18.3343 9.60471C18.5745 9.50807 18.7928 9.36414 18.9762 9.18145C19.55 8.61687 20.1189 8.0477 20.6831 7.47395C20.742 7.41491 20.7783 7.33704 20.7856 7.25395C20.7906 5.73833 20.7856 4.22208 20.7856 2.70645C20.7809 2.67555 20.7732 2.64519 20.7625 2.61583H14.6768C14.599 2.62144 14.5207 2.61788 14.4437 2.6052C14.2562 2.55833 14.1462 2.43708 14.1481 2.23645C14.15 2.03583 14.2637 1.91833 14.4512 1.87395C14.5209 1.86338 14.5915 1.86065 14.6618 1.86583H21.015C21.4287 1.86583 21.5387 1.97583 21.5387 2.39645C21.5387 4.0527 21.5387 5.70895 21.5425 7.36583C21.5465 7.46634 21.5286 7.56652 21.4901 7.65944C21.4516 7.75236 21.3933 7.83579 21.3193 7.90395C20.7493 8.46145 20.1856 9.02499 19.6281 9.59458C19.0275 10.2102 18.3043 10.5127 17.4406 10.4933C17.105 10.4858 16.7681 10.4796 16.4331 10.499C16.3072 10.5079 16.188 10.5588 16.0943 10.6433C15.2818 11.4465 14.4631 12.2402 13.6862 13.0752C13.0175 13.7927 12.0793 14.0365 11.1512 13.4708C11.0262 13.8758 11.095 14.1246 11.4012 14.3758C12.0262 14.8927 12.6512 15.4127 13.2868 15.9208C13.3911 15.9954 13.5145 16.0387 13.6425 16.0458C13.9068 16.0646 14.1737 16.0458 14.4393 16.0533C14.7518 16.0596 14.8881 16.1865 14.8906 16.4939C14.896 17.1735 14.896 17.8533 14.8906 18.5333C14.8906 18.8039 14.7275 18.9777 14.5075 18.9708C14.2875 18.964 14.1456 18.7983 14.1437 18.5165C14.14 18.0402 14.1437 17.5633 14.1437 17.0865V16.8165H11.9687V17.4502C11.9687 17.8177 11.9725 18.1852 11.9687 18.5521C11.9637 18.8327 11.8275 18.9683 11.5468 18.9708C11.0077 18.9758 10.4683 18.9758 9.92871 18.9708C9.65121 18.9708 9.51683 18.8271 9.51433 18.5452C9.51058 18.0608 9.51433 17.5765 9.51433 17.0921V16.819H7.35933V21.3746H14.1443ZM8.31246 2.62458C8.23121 2.6152 8.19433 2.60708 8.15746 2.60708C6.87663 2.60708 5.59579 2.60708 4.31496 2.60708C4.21346 2.60644 4.11235 2.61947 4.01433 2.64583C3.77133 2.71352 3.56008 2.86494 3.41792 3.07332C3.27576 3.2817 3.21184 3.53363 3.23746 3.78458C3.27746 4.27708 3.67496 4.7077 4.17871 4.73458C4.81746 4.7677 5.45871 4.7527 6.09871 4.75208C6.15962 4.74659 6.21658 4.71955 6.25933 4.67583C6.93183 4.0052 7.60433 3.33083 8.31246 2.62458ZM11.1218 10.4158C11.1503 10.4055 11.1775 10.3921 11.2031 10.3758C11.8 9.7802 12.4087 9.1952 12.9843 8.57958C13.1371 8.40364 13.2335 8.18592 13.2612 7.95458C13.3337 7.33833 12.8506 6.79395 12.245 6.75333C11.6487 6.71333 11.1531 7.18583 11.1356 7.8302C11.12 8.3927 11.125 8.9552 11.1218 9.5177C11.1181 9.81208 11.1193 10.1046 11.1193 10.4152L11.1218 10.4158ZM12.2393 16.0408L10.7275 14.8121L9.24996 16.0377L12.2393 16.0408ZM10.2843 16.8202V18.2158H11.205V16.8171L10.2843 16.8202Z" fill="#4FB155"/>
<path d="M11.1194 10.4156C11.1194 10.1031 11.1194 9.81187 11.1194 9.51875C11.1225 8.95625 11.1194 8.39375 11.1331 7.83125C11.1506 7.18688 11.6463 6.71438 12.2425 6.75438C12.8481 6.795 13.3313 7.33938 13.2588 7.95563C13.2311 8.18697 13.1346 8.40469 12.9819 8.58063C12.4063 9.19625 11.7944 9.78125 11.2006 10.3769C11.175 10.3927 11.1478 10.4057 11.1194 10.4156Z" fill="white"/>
</svg>
