<svg width="26" height="26" viewBox="0 0 26 26" fill="none" xmlns="http://www.w3.org/2000/svg">
<path d="M13.5871 4.63535C13.5871 5.19043 13.5823 5.74618 13.5952 6.30058C13.5952 6.34723 13.7164 6.42363 13.7868 6.43107C15.303 6.58262 16.7434 7.16656 17.9363 8.1132C18.2566 8.36538 18.3155 8.66084 18.1117 8.94953C17.8943 9.25783 17.5483 9.29164 17.207 9.02458C16.5283 8.49 15.7542 8.08875 14.9258 7.84208C10.9848 6.66703 6.8868 9.27 6.31259 13.334C6.03293 15.3089 6.54417 17.0843 7.81312 18.6326C8.18487 19.0856 8.16794 19.3472 7.72171 19.7245C7.03735 20.3032 6.35209 20.8813 5.66592 21.4587C5.29485 21.7697 4.99285 21.742 4.6834 21.3715C2.83888 19.1681 1.96199 16.6259 2.09403 13.762C2.32358 8.80349 5.9449 4.62454 10.8433 3.62053C16.6321 2.4279 22.3993 6.15725 23.6527 11.9582C24.4077 15.4543 23.585 18.6028 21.3166 21.3715C21.0166 21.7372 20.7004 21.7568 20.3327 21.4472C19.6334 20.8612 18.9337 20.273 18.2336 19.6826C17.851 19.3614 17.8212 19.07 18.1435 18.684C19.2825 17.3203 19.8296 15.7497 19.7395 13.979C19.7118 13.4381 19.575 12.8973 19.4721 12.3564C19.3935 11.9413 19.6969 11.5883 20.116 11.635C20.4112 11.6681 20.5467 11.8615 20.6218 12.1285C21.0623 13.6488 21.0292 15.2669 20.527 16.7679C20.3905 17.1758 20.2234 17.5729 20.0273 17.9558C19.8336 18.3385 19.5899 18.6955 19.3502 19.0917L20.7044 20.2295C22.7243 17.7658 23.5227 13.739 21.8163 10.1591C20.0138 6.3763 16.3098 4.68133 13.5871 4.63535ZM5.69504 7.88062C4.24529 9.56005 3.43069 11.4883 3.28172 13.7295C3.83698 13.7295 4.35092 13.7214 4.86487 13.7336C5.05108 13.7383 5.10999 13.6788 5.12692 13.4956C5.23985 12.2725 5.64909 11.0951 6.31936 10.0651C6.5225 9.748 6.75611 9.44984 6.96805 9.15371L5.69504 7.88062ZM12.4122 4.6029C10.1608 4.76855 8.22753 5.5731 6.58886 6.99426L7.87542 8.27884C9.11229 7.22943 10.6425 6.58528 12.2585 6.43377C12.2942 6.42382 12.3266 6.40473 12.3526 6.37841C12.3787 6.35208 12.3973 6.31943 12.4068 6.28368C12.4163 5.73739 12.4122 5.18773 12.4122 4.60087V4.6029ZM3.27698 14.912C3.39444 16.8525 4.09242 18.7132 5.28063 20.2532L6.66944 19.0768C5.7594 17.8658 5.21293 16.4214 5.09374 14.912H3.27698Z" fill="#029046"/>
<path d="M13.2092 17.853C12.0912 17.849 11.3518 17.3237 11.0782 16.5441C10.8006 15.7504 11.0335 14.8539 11.7228 14.363C13.1651 13.3279 14.6257 12.3192 16.0877 11.3125C17.083 10.6269 18.0927 9.96028 19.0982 9.28959C19.3961 9.09081 19.665 9.10434 19.8837 9.31528C20.1166 9.54042 20.1329 9.84196 19.9094 10.1361C19.3573 10.8635 18.8016 11.5879 18.2423 12.309C17.0153 13.8825 15.7857 15.4529 14.5533 17.0201C14.1382 17.5508 13.606 17.8517 13.2092 17.853ZM16.7533 12.3354L16.712 12.2962C16.1405 12.6856 15.5663 13.071 14.9981 13.4652C14.2005 14.0191 13.406 14.5767 12.6146 15.1378C12.3844 15.3008 12.1704 15.482 12.1352 15.7889C12.1197 15.9622 12.1588 16.1361 12.247 16.2862C12.3353 16.4362 12.4683 16.555 12.6275 16.6259C12.7772 16.6998 12.9479 16.72 13.1108 16.6831C13.2737 16.6461 13.4189 16.5543 13.522 16.4231C13.9418 15.9268 14.3481 15.4191 14.7496 14.9086C15.422 14.0534 16.0856 13.1927 16.7533 12.3354Z" fill="#029046"/>
<path d="M12.9969 21.4927C14.6221 21.4927 16.2472 21.4927 17.8723 21.4927C18.2549 21.4927 18.4723 21.68 18.4966 22.0126C18.5244 22.3798 18.3097 22.6279 17.94 22.6556C17.898 22.659 17.8554 22.6556 17.8134 22.6556C14.6083 22.6556 11.4032 22.6556 8.19806 22.6556C7.76199 22.6556 7.53108 22.471 7.50942 22.1147C7.48639 21.7375 7.71256 21.4927 8.1053 21.4907C8.98557 21.4853 9.86585 21.4907 10.7461 21.4907L12.9969 21.4927Z" fill="#029046"/>
<path d="M12.9854 20.4385C12.3435 20.4385 11.6989 20.4385 11.059 20.4385C10.6459 20.4385 10.4116 20.2242 10.4082 19.8625C10.4049 19.5008 10.6419 19.2736 11.0481 19.2722C12.3491 19.2686 13.6501 19.2686 14.9511 19.2722C15.3574 19.2722 15.5937 19.5014 15.5897 19.8645C15.5856 20.2276 15.352 20.4365 14.9369 20.4385C14.2862 20.4412 13.6361 20.4385 12.9854 20.4385Z" fill="#029046"/>
</svg>
