<svg width="26" height="26" viewBox="0 0 26 26" fill="none" xmlns="http://www.w3.org/2000/svg">
<path d="M13.588 4.63535C13.588 5.19043 13.5833 5.74618 13.5962 6.30058C13.5962 6.34723 13.7174 6.42363 13.7878 6.43107C15.304 6.58262 16.7444 7.16656 17.9373 8.1132C18.2576 8.36538 18.3165 8.66084 18.1127 8.94953C17.8953 9.25783 17.5493 9.29164 17.208 9.02458C16.5293 8.49 15.7552 8.08875 14.9267 7.84208C10.9858 6.66703 6.88777 9.27 6.31356 13.334C6.03391 15.3089 6.54514 17.0843 7.8141 18.6326C8.18584 19.0856 8.16892 19.3472 7.72268 19.7245C7.03832 20.3032 6.35306 20.8813 5.6669 21.4587C5.29583 21.7697 4.99382 21.742 4.68437 21.3715C2.83985 19.1681 1.96296 16.6259 2.095 13.762C2.32455 8.80349 5.94588 4.62454 10.8443 3.62053C16.6331 2.4279 22.4003 6.15725 23.6537 11.9582C24.4087 15.4543 23.586 18.6028 21.3175 21.3715C21.0176 21.7372 20.7014 21.7568 20.3337 21.4472C19.6344 20.8612 18.9347 20.273 18.2345 19.6826C17.852 19.3614 17.8222 19.07 18.1445 18.684C19.2834 17.3203 19.8306 15.7497 19.7405 13.979C19.7127 13.4381 19.576 12.8973 19.473 12.3564C19.3945 11.9413 19.6978 11.5883 20.117 11.635C20.4122 11.6681 20.5476 11.8615 20.6228 12.1285C21.0633 13.6488 21.0302 15.2669 20.528 16.7679C20.3915 17.1758 20.2244 17.5729 20.0283 17.9558C19.8346 18.3385 19.5909 18.6955 19.3511 19.0917L20.7054 20.2295C22.7253 17.7658 23.5237 13.739 21.8173 10.1591C20.0147 6.3763 16.3108 4.68133 13.588 4.63535ZM5.69601 7.88062C4.24627 9.56005 3.43167 11.4883 3.2827 13.7295C3.83795 13.7295 4.3519 13.7214 4.86585 13.7336C5.05206 13.7383 5.11097 13.6788 5.1279 13.4956C5.24083 12.2725 5.65007 11.0951 6.32033 10.0651C6.52347 9.748 6.75709 9.44984 6.96903 9.15371L5.69601 7.88062ZM12.4132 4.6029C10.1617 4.76855 8.2285 5.5731 6.58983 6.99426L7.87639 8.27884C9.11326 7.22943 10.6435 6.58528 12.2595 6.43377C12.2952 6.42382 12.3276 6.40473 12.3536 6.37841C12.3796 6.35208 12.3983 6.31943 12.4078 6.28368C12.4173 5.73739 12.4132 5.18773 12.4132 4.60087V4.6029ZM3.27796 14.912C3.39541 16.8525 4.0934 18.7132 5.28161 20.2532L6.67041 19.0768C5.76038 17.8658 5.21391 16.4214 5.09472 14.912H3.27796Z" fill="white"/>
<path d="M13.2101 17.853C12.0922 17.849 11.3527 17.3237 11.0792 16.5441C10.8016 15.7504 11.0345 14.8539 11.7238 14.363C13.1661 13.3279 14.6267 12.3192 16.0886 11.3125C17.084 10.6269 18.0936 9.96028 19.0992 9.28959C19.3971 9.09081 19.6659 9.10434 19.8847 9.31528C20.1176 9.54042 20.1338 9.84196 19.9104 10.1361C19.3583 10.8635 18.8026 11.5879 18.2433 12.309C17.0163 13.8825 15.7866 15.4529 14.5542 17.0201C14.1392 17.5508 13.6069 17.8517 13.2101 17.853ZM16.7543 12.3354L16.713 12.2962C16.1414 12.6856 15.5672 13.071 14.9991 13.4652C14.2015 14.0191 13.4069 14.5767 12.6156 15.1378C12.3854 15.3008 12.1714 15.482 12.1362 15.7889C12.1206 15.9622 12.1597 16.1361 12.248 16.2862C12.3363 16.4362 12.4693 16.555 12.6285 16.6259C12.7782 16.6998 12.9489 16.72 13.1118 16.6831C13.2747 16.6461 13.4199 16.5543 13.523 16.4231C13.9428 15.9268 14.3491 15.4191 14.7506 14.9086C15.423 14.0534 16.0866 13.1927 16.7543 12.3354Z" fill="white"/>
<path d="M12.9969 21.4927C14.6221 21.4927 16.2472 21.4927 17.8723 21.4927C18.2549 21.4927 18.4723 21.68 18.4966 22.0126C18.5244 22.3798 18.3097 22.6279 17.94 22.6556C17.898 22.659 17.8554 22.6556 17.8134 22.6556C14.6083 22.6556 11.4032 22.6556 8.19806 22.6556C7.76199 22.6556 7.53108 22.471 7.50942 22.1147C7.48639 21.7375 7.71256 21.4927 8.1053 21.4907C8.98557 21.4853 9.86585 21.4907 10.7461 21.4907L12.9969 21.4927Z" fill="white"/>
<path d="M12.9854 20.4385C12.3435 20.4385 11.6989 20.4385 11.059 20.4385C10.6459 20.4385 10.4116 20.2242 10.4082 19.8625C10.4049 19.5008 10.6419 19.2736 11.0481 19.2722C12.3491 19.2686 13.6501 19.2686 14.9511 19.2722C15.3574 19.2722 15.5937 19.5014 15.5897 19.8645C15.5856 20.2276 15.352 20.4365 14.9369 20.4385C14.2862 20.4412 13.6361 20.4385 12.9854 20.4385Z" fill="white"/>
</svg>
