<svg width="107" height="27" viewBox="0 0 107 27" fill="none" xmlns="http://www.w3.org/2000/svg">
<path d="M49.0888 19H48.1888V10.384H53.1328V11.164H49.0888V14.524H52.5688V15.304H49.0888V19ZM58.4189 16.444V12.676H59.2469V19H58.4669V17.86C58.1429 18.592 57.3749 19.12 56.4509 19.12C55.1669 19.12 54.3149 18.388 54.3149 16.792V12.676H55.1549V16.612C55.1549 17.896 55.7909 18.388 56.6789 18.388C57.6869 18.388 58.4189 17.572 58.4189 16.444ZM61.9063 19H61.0663V10.384H61.9063V19ZM64.5665 19H63.7265V10.384H64.5665V19ZM74.9904 16.612C74.9904 17.98 73.8744 19.12 71.8704 19.12C69.8664 19.12 68.6904 18.004 68.6064 16.372H69.5184C69.6024 17.596 70.3704 18.388 71.8584 18.388C73.0824 18.388 74.0424 17.764 74.0424 16.732C74.0424 15.844 73.5384 15.436 72.3144 15.184L71.2224 14.968C70.0824 14.74 68.8824 14.212 68.8824 12.712C68.8824 11.332 70.0944 10.264 71.8104 10.264C73.4904 10.264 74.7864 11.32 74.8824 12.964H73.9584C73.8984 11.824 73.0584 10.996 71.8224 10.996C70.5024 10.996 69.7944 11.8 69.7944 12.664C69.7944 13.684 70.6584 13.996 71.6184 14.188L72.7104 14.416C74.1624 14.716 74.9904 15.316 74.9904 16.612ZM78.9694 19.132C77.3014 19.132 76.1374 17.776 76.1374 15.832C76.1374 13.912 77.3134 12.556 78.9694 12.556C80.4454 12.556 81.5014 13.54 81.7534 15.124H80.9014C80.7094 13.972 79.9894 13.288 78.9694 13.288C77.7934 13.288 76.9894 14.32 76.9894 15.832C76.9894 17.368 77.7934 18.4 78.9694 18.4C80.0014 18.4 80.7094 17.728 80.9014 16.552H81.7534C81.5254 18.16 80.4574 19.132 78.9694 19.132ZM83.9493 15.616V19H83.1093V12.676H83.8893V14.116C84.3213 13.18 85.2573 12.58 86.3013 12.58V13.456C84.9693 13.408 83.9493 14.236 83.9493 15.616ZM89.8003 19.12C88.0243 19.12 86.8483 17.788 86.8483 15.784C86.8483 13.936 88.0723 12.556 89.7523 12.556C91.5523 12.556 92.7283 14.008 92.5843 16.036H87.6883C87.7603 17.536 88.5523 18.46 89.7883 18.46C90.8443 18.46 91.5763 17.872 91.7803 16.864H92.6083C92.3203 18.268 91.2523 19.12 89.8003 19.12ZM89.7403 13.204C88.6003 13.204 87.7963 14.08 87.6883 15.46H91.7083C91.6363 14.044 90.9043 13.204 89.7403 13.204ZM96.3394 19.12C94.5634 19.12 93.3874 17.788 93.3874 15.784C93.3874 13.936 94.6114 12.556 96.2914 12.556C98.0914 12.556 99.2674 14.008 99.1234 16.036H94.2274C94.2994 17.536 95.0914 18.46 96.3274 18.46C97.3834 18.46 98.1154 17.872 98.3194 16.864H99.1474C98.8594 18.268 97.7914 19.12 96.3394 19.12ZM96.2794 13.204C95.1394 13.204 94.3354 14.08 94.2274 15.46H98.2474C98.1754 14.044 97.4434 13.204 96.2794 13.204ZM101.352 15.316V19H100.512V12.676H101.292V13.864C101.7 13.084 102.468 12.556 103.38 12.556C104.7 12.556 105.552 13.396 105.552 14.896V19H104.712V15.184C104.712 13.972 104.16 13.288 103.128 13.288C102.144 13.288 101.352 14.14 101.352 15.316Z" fill="#090928"/>
<g clip-path="url(#clip0_271_4796)">
<path d="M16.4371 10.8198L21.5446 5.74373L21.528 8.62104C21.5226 8.86091 21.7129 9.06962 21.9531 9.06427L22.2577 9.06398C22.4979 9.05834 22.6965 8.91554 22.7015 8.67566L22.714 4.38938C22.714 4.38524 22.6976 4.38198 22.6976 4.37782L22.7211 4.16051C22.7235 4.03998 22.6953 3.93251 22.6175 3.85564C22.5406 3.77815 22.4329 3.73095 22.3132 3.73422L22.0962 3.73926C22.092 3.73926 22.0888 3.74075 22.0843 3.74136L17.8263 3.72266C17.5864 3.728 17.3878 3.92631 17.3824 4.16648L17.3818 4.4711C17.4183 4.75402 17.6407 4.91938 17.8806 4.91403L20.6869 4.92146L15.5976 9.97991C15.3657 10.2118 15.3657 10.5876 15.5976 10.8198C15.8294 11.0513 16.2053 11.0513 16.4371 10.8198ZM10.0021 15.6L4.89463 20.6602L4.91096 17.7986C4.9166 17.5585 4.72599 17.3498 4.48611 17.3551L4.16283 17.3557C3.92236 17.3616 3.72403 17.5041 3.71898 17.7443L3.70652 22.0306C3.70652 22.0347 3.72284 22.0374 3.72284 22.0421L3.69939 22.2589C3.69672 22.3794 3.72492 22.4875 3.803 22.5638C3.87959 22.6416 3.98766 22.6885 4.107 22.6855L4.32431 22.6802C4.32845 22.6802 4.33142 22.6784 4.33619 22.6784L8.61296 22.6971C8.85284 22.6911 9.05117 22.4928 9.05679 22.2529L9.05738 21.9481C9.02089 21.6657 8.79851 21.4998 8.55863 21.5051L5.75229 21.4977L10.8413 16.4398C11.0732 16.208 11.0732 15.8321 10.8413 15.6003C10.6095 15.3684 10.2339 15.3681 10.002 15.6H10.0021ZM22.7143 22.0303L22.7018 17.744C22.6965 17.5038 22.4979 17.3613 22.258 17.3554L21.9534 17.3548C21.7132 17.3494 21.5232 17.5584 21.5283 17.7983L21.5449 20.6756L16.4372 15.5999C16.2053 15.3681 15.8295 15.3681 15.5976 15.5999C15.3657 15.8318 15.3657 16.2076 15.5976 16.4395L20.6867 21.4973L17.8806 21.5048C17.6407 21.4994 17.4183 21.6654 17.3818 21.9477L17.3824 22.2526C17.3881 22.4928 17.5867 22.6911 17.8263 22.6967L22.0846 22.678C22.0891 22.678 22.0924 22.6798 22.0965 22.6798L22.3135 22.6851C22.4332 22.6881 22.5412 22.6412 22.6178 22.5634C22.6956 22.4868 22.7235 22.3791 22.7214 22.2585L22.698 22.0418C22.698 22.0371 22.7143 22.0344 22.7143 22.0303L22.7143 22.0303ZM5.7523 4.92192L8.55897 4.91455C8.79884 4.9199 9.0212 4.75424 9.05772 4.4716L9.05712 4.16673C9.05117 3.92657 8.85282 3.72794 8.61328 3.7229L4.33619 3.7413C4.33144 3.74071 4.32847 3.73923 4.32431 3.73923L4.107 3.73416C3.98768 3.73091 3.87932 3.77812 3.803 3.85558C3.72492 3.93247 3.69674 4.03994 3.69939 4.16047L3.72284 4.37779C3.72284 4.38192 3.70652 4.38491 3.70652 4.38936L3.71898 8.67565C3.72433 8.91552 3.92266 9.05832 4.16283 9.06396L4.48613 9.06424C4.72601 9.06958 4.91628 8.86088 4.91094 8.621L4.89461 5.75942L10.0021 10.8197C10.2336 11.0515 10.6098 11.0515 10.8417 10.8197C11.0735 10.5878 11.0735 10.2117 10.8417 9.9798L5.7523 4.92192Z" fill="#0B1224"/>
</g>
<defs>
<clipPath id="clip0_271_4796">
<rect width="19" height="19" fill="white" transform="translate(3.71094 3.70996)"/>
</clipPath>
</defs>
</svg>
