<svg width="20" height="20" viewBox="0 0 20 20" fill="none" xmlns="http://www.w3.org/2000/svg">
<path d="M7 6.45H6.45V7V18.5V19.05H7H18.25C18.4622 19.05 18.6657 18.9657 18.8157 18.8157C18.9657 18.6657 19.05 18.4622 19.05 18.25V7V6.45H18.5H7ZM18.5 6.05H19.05V5.5V1.75C19.05 1.53783 18.9657 1.33434 18.8157 1.18431C18.6657 1.03429 18.4622 0.95 18.25 0.95H7H6.45V1.5V5.5V6.05H7H18.5ZM1.5 6.45H0.95V7V18.25C0.95 18.6918 1.30824 19.05 1.75 19.05H5.5H6.05V18.5V7V6.45H5.5H1.5ZM5.5 6.05H6.05V5.5V1.5V0.95H5.5H1.75C1.53783 0.95 1.33434 1.03429 1.18431 1.18431C1.03429 1.33434 0.95 1.53783 0.95 1.75V5.5V6.05H1.5H5.5ZM0.55 1.75C0.55 1.08776 1.08776 0.55 1.75 0.55H18.25C18.9122 0.55 19.45 1.08776 19.45 1.75V18.25C19.45 18.5683 19.3236 18.8735 19.0985 19.0985C18.8735 19.3236 18.5683 19.45 18.25 19.45H1.75C1.43174 19.45 1.12652 19.3236 0.901472 19.0985C0.676428 18.8735 0.55 18.5683 0.55 18.25V1.75Z" stroke="#0B1224" stroke-width="1.1"/>
</svg>
