<svg width="24" height="24" viewBox="0 0 24 24" fill="none" xmlns="http://www.w3.org/2000/svg">
<path d="M9 8.45H8.45V9V20.5V21.05H9H20.25C20.4622 21.05 20.6657 20.9657 20.8157 20.8157C20.9657 20.6657 21.05 20.4622 21.05 20.25V9V8.45H20.5H9ZM20.5 8.05H21.05V7.5V3.75C21.05 3.53783 20.9657 3.33434 20.8157 3.18431C20.6657 3.03429 20.4622 2.95 20.25 2.95H9H8.45V3.5V7.5V8.05H9H20.5ZM3.5 8.45H2.95V9V20.25C2.95 20.6918 3.30824 21.05 3.75 21.05H7.5H8.05V20.5V9V8.45H7.5H3.5ZM7.5 8.05H8.05V7.5V3.5V2.95H7.5H3.75C3.53783 2.95 3.33434 3.03429 3.18431 3.18431C3.03429 3.33434 2.95 3.53783 2.95 3.75V7.5V8.05H3.5H7.5ZM2.55 3.75C2.55 3.08776 3.08776 2.55 3.75 2.55H20.25C20.9122 2.55 21.45 3.08776 21.45 3.75V20.25C21.45 20.5683 21.3236 20.8735 21.0985 21.0985C20.8735 21.3236 20.5683 21.45 20.25 21.45H3.75C3.43174 21.45 3.12652 21.3236 2.90147 21.0985C2.67643 20.8735 2.55 20.5683 2.55 20.25V3.75Z" stroke="white" stroke-width="1.1"/>
</svg>
