<svg width="24" height="24" viewBox="0 0 24 24" fill="none" xmlns="http://www.w3.org/2000/svg">
<path d="M11.9938 21.5508H0.743819C0.665694 21.5508 0.587569 21.5539 0.509444 21.5508C0.207569 21.5327 0.0513194 21.3752 0.0488194 21.0745C0.0444444 20.6295 0.0488194 20.1839 0.0488194 19.7389V3.09641C0.0488194 2.55641 0.157568 2.44578 0.688193 2.44578C3.62694 2.44578 6.56444 2.44432 9.50069 2.44141C9.79382 2.44141 10.0101 2.51953 10.1663 2.77953C10.2982 2.99953 10.4744 3.19391 10.6069 3.41391C10.7101 3.58391 10.8382 3.62578 11.0294 3.62578C15.1165 3.62037 19.2034 3.61912 23.2901 3.62203C23.3915 3.6191 23.493 3.62369 23.5938 3.63578C23.8163 3.66891 23.9357 3.80891 23.9594 4.02891C23.9632 4.09927 23.9632 4.16979 23.9594 4.24016C23.9594 9.80266 23.9594 15.3652 23.9594 20.9277C23.9594 21.4277 23.8376 21.5527 23.3388 21.5527L11.9938 21.5508ZM0.903193 10.6883V20.6883H23.0994V6.98516H22.8494C21.1069 6.98516 19.3644 6.98828 17.6219 6.98016C17.4413 6.98016 17.3426 7.04266 17.2469 7.18391C16.5044 8.23703 15.7469 9.28078 15.0107 10.337C14.8363 10.587 14.6407 10.692 14.3313 10.6914C9.95632 10.6827 5.58132 10.6808 1.20632 10.6858L0.903193 10.6883ZM16.3407 6.98766H16.0388C14.8588 6.98766 13.6788 6.98078 12.4988 6.99266C12.2244 6.99578 12.0501 6.89578 11.8957 6.67641C11.1457 5.60953 10.3819 4.55141 9.63132 3.48516C9.59198 3.42001 9.53534 3.36706 9.4677 3.33219C9.40006 3.29732 9.32407 3.28191 9.24819 3.28766C6.55194 3.29391 3.85569 3.29537 1.15944 3.29203H0.909442V9.83578C0.960692 9.83953 0.998817 9.84391 1.03444 9.84391C5.40944 9.84391 9.78632 9.84203 14.1651 9.83828C14.2153 9.83309 14.2639 9.81773 14.3079 9.79312C14.352 9.76851 14.3906 9.73518 14.4213 9.69516C15.0313 8.85453 15.6313 8.00766 16.2338 7.16016C16.2601 7.11516 16.2851 7.06891 16.3376 6.98516L16.3407 6.98766ZM11.3907 4.48266C11.4407 4.56328 11.4738 4.62203 11.5119 4.67703C11.8151 5.10328 12.1251 5.52516 12.4194 5.95766C12.456 6.01969 12.5092 6.07018 12.5731 6.10334C12.637 6.13651 12.7089 6.151 12.7807 6.14516C16.1411 6.14016 19.5015 6.13891 22.8619 6.14141H23.1013V4.48016L11.3907 4.48266Z" fill="#0B1224"/>
</svg>
